<?xml version="1.0" encoding="utf-8"?>
<!-- Generator: Adobe Illustrator 19.2.1, SVG Export Plug-In . SVG Version: 6.00 Build 0)  -->
<svg version="1.1" id="Layer_1" xmlns="http://www.w3.org/2000/svg" xmlns:xlink="http://www.w3.org/1999/xlink" x="0px" y="0px"
	 width="140.6px" height="111.9px" viewBox="0 0 140.6 111.9" style="enable-background:new 0 0 140.6 111.9;" xml:space="preserve"
	>
<style type="text/css">
	.st0{fill:#009BA7;}
	.st1{fill:#6D6E71;}
</style>
<g id="owe76p.tif_1_">
	<g>
		<g>
			<path class="st0" d="M78.6,0c0.3,0.1,0.6,0.4,0.9,0.6c0.2,0.2,0.5,0.4,0.7,0.7c0.4,0.4,0.9,0.8,1.2,1.3c0,0.1,0.1,0.1,0.2,0.2
				c0.4,0.3,0.7,0.6,0.9,1C82.8,4,83,4.3,83.2,4.6c0.3,0.3,0.7,0.6,1,0.9c0.4,0.1,0.7,0.4,1.1,0.4c0.2,0,0.4,0,0.6,0
				c0.3,0,0.5-0.2,0.6-0.4c0.2-0.3,0.2-0.6,0.1-0.8c-0.3-0.5-0.5-1-0.9-1.5c-0.3-0.4-0.5-0.8-0.9-1.2c-0.3-0.4-0.6-0.8-1-1.2
				c-0.1-0.1-0.1-0.2-0.2-0.3c0-0.1,0-0.2,0-0.3c0.1-0.1,0.2-0.1,0.3,0c0.1,0.1,0.3,0.1,0.4,0.2c0.2,0.2,0.4,0.3,0.6,0.5
				c0.3,0.4,0.7,0.7,1,1.1C86.4,2.3,86.7,2.7,87,3c0.2,0.2,0.3,0.4,0.5,0.6c0.1,0.1,0.1,0.1,0.2,0.2c0.1,0.1,0.2,0.2,0.2,0.3
				c0.2,0.3,0.4,0.5,0.6,0.8c0.2,0.3,0.4,0.5,0.7,0.7C89.4,5.8,89.7,6,90,6c0.2,0,0.5,0.1,0.8,0.1c0.3,0,0.6-0.3,0.5-0.6
				c-0.2-0.4-0.3-0.9-0.6-1.3c-0.5-0.6-1-1.3-1.4-1.9C89,2,88.7,1.8,88.5,1.5c-0.1-0.2-0.2-0.4-0.3-0.6c0-0.1,0-0.2,0-0.2
				c0-0.1,0.1-0.1,0.2,0c0.2,0.1,0.3,0.2,0.5,0.3c0.2,0.2,0.4,0.3,0.5,0.6c0,0.1,0.1,0.1,0.1,0.1c0.4,0.2,0.6,0.6,0.8,0.8
				c0.3,0.3,0.6,0.6,0.9,1c0.3,0.3,0.6,0.6,0.8,1c0,0.1,0.1,0.1,0.1,0.2C92.5,5,92.8,5.2,93,5.5c0.2,0.2,0.4,0.4,0.5,0.6
				c0.4,0.5,0.9,0.8,1.5,1c0.3,0.1,0.6,0.1,0.9,0.1c0.2,0,0.4-0.2,0.4-0.4c0-0.1,0-0.3,0-0.4c0-0.4-0.2-0.7-0.4-1
				C96,5.3,96,5.2,95.9,5.1c-0.2-0.3-0.4-0.6-0.6-1c-0.1-0.2-0.2-0.4-0.4-0.6c-0.2-0.3-0.4-0.7-0.6-1c-0.1-0.2-0.2-0.4-0.2-0.6
				c0-0.1,0.1-0.2,0.2-0.2c0.2,0,0.3,0.1,0.4,0.2c0.3,0.3,0.5,0.5,0.8,0.8c0.1,0.1,0.2,0.3,0.3,0.4c0.1,0.1,0.1,0.2,0.2,0.3
				c0.2,0.2,0.4,0.5,0.5,0.8c0,0,0,0.1,0.1,0.1c0.3,0.5,0.7,1,1,1.5c0.2,0.3,0.3,0.5,0.4,0.8c0,0,0,0,0,0.1c0.4,0.5,0.7,1.1,1.2,1.5
				c0.2,0.2,0.4,0.4,0.7,0.4c0.2,0.1,0.4,0,0.6-0.1c0.1-0.1,0.1-0.2,0.2-0.3c0.1-0.4,0-0.8,0-1.2c-0.1-0.6-0.4-1.2-0.7-1.8
				c-0.1-0.2-0.2-0.4-0.3-0.6c-0.1-0.2-0.3-0.5-0.4-0.7c-0.1-0.1-0.1-0.2-0.2-0.4C99,3.4,99,3.3,99,3.1c0-0.2,0.2-0.3,0.4-0.1
				c0.1,0.1,0.1,0.1,0.2,0.2c0.1,0.2,0.3,0.4,0.4,0.5c0.1,0.1,0.1,0.2,0.2,0.2c0.4,0.3,0.6,0.8,0.9,1.2c0.4,0.7,0.7,1.5,1.1,2.3
				c0.1,0.3,0.2,0.5,0.3,0.8c0.2,0.3,0.3,0.5,0.4,0.8c0.1,0.2,0.2,0.3,0.3,0.5c0.1,0.2,0.3,0.3,0.4,0.5c0.2,0.2,0.3,0.3,0.5,0.5
				c0.2,0.2,0.5,0.3,0.8,0.2c0.1,0,0.2-0.1,0.2-0.2c0.1-0.4,0.1-0.9,0.1-1.3c-0.1-0.5-0.2-1-0.3-1.5c0-0.1,0-0.3-0.1-0.4
				c-0.1-0.4-0.3-0.8-0.4-1.2c0,0,0-0.1,0-0.1c-0.2-0.3-0.3-0.8-0.5-1.1c-0.1-0.1-0.1-0.2,0-0.4c0.1-0.1,0.2-0.1,0.3,0c0,0,0,0,0,0
				c0.3,0.5,0.6,1,0.9,1.5c0.1,0.2,0.2,0.4,0.3,0.6c0.3,0.5,0.5,1.1,0.7,1.6c0.3,0.9,0.6,1.8,0.9,2.7c0,0.1,0,0.1,0,0.2
				c0.1,0.3,0.2,0.6,0.4,0.9c0.2,0.3,0.6,0.5,0.9,0.7c0.2,0.1,0.5,0.1,0.7,0c0.1,0,0.2-0.1,0.2-0.2c0.3-0.5,0.5-1.1,0.4-1.7
				c-0.1-0.5-0.3-0.9-0.3-1.4c-0.1-0.8-0.6-1.6-0.8-2.4c0-0.1-0.1-0.2-0.1-0.3c0-0.1,0-0.1,0.1-0.2c0.1-0.1,0.2-0.1,0.2,0
				c0.2,0.1,0.4,0.3,0.5,0.5c0.3,0.5,0.6,1,0.9,1.6c0.1,0.4,0.2,0.8,0.3,1.1c0,0.1,0.1,0.3,0.1,0.4c0.1,0.4,0.2,0.7,0.2,1.1
				c0,0.2,0.1,0.3,0.1,0.5c0.1,0.3,0.2,0.6,0.1,0.9c0,0,0,0.1,0,0.1c0.2,0.6,0.2,1.2,0.3,1.8c0,0.2,0.1,0.4,0.2,0.6
				c0.1,0.1,0.1,0.3,0.2,0.4c0.1,0.3,0.3,0.5,0.6,0.7c0.1,0,0.1,0.1,0.1,0.1c0.1,0.1,0.2,0.2,0.3,0.2c0.2,0.1,0.3,0,0.4-0.1
				c0.1-0.1,0.1-0.2,0.2-0.3c0.1-0.3,0.2-0.7,0.3-1c0-0.2,0.1-0.4,0.1-0.5c0.1-0.3,0.2-0.5,0.3-0.8c0-0.2,0-0.3,0-0.5
				c0-0.3,0-0.6,0.1-0.8c0.1-0.2,0-0.3,0-0.5c0-0.1,0-0.3,0-0.4c0-0.3,0.1-0.4,0.4-0.4c0.1,0.1,0.2,0.3,0.2,0.4
				c0.1,0.5,0.2,0.9,0.2,1.4c0,0.2,0,0.4,0.1,0.6c0,0.5-0.1,1.1-0.1,1.6c0,0.1,0,0.2,0,0.3c0,0.7-0.1,1.3-0.1,2c0,0.1,0,0.2,0,0.3
				c-0.1,0.4-0.2,0.8-0.3,1.2c0,0.2,0,0.4,0.1,0.6c0,0.1,0.1,0.1,0.2,0.1c0.2,0,0.4-0.1,0.5-0.1c0.1,0,0.1-0.1,0.2-0.1
				c0.1-0.1,0.2-0.2,0.2-0.3c0.1-0.3,0.3-0.5,0.3-0.9c0-0.4,0.2-0.8,0.3-1.1c0-0.1,0.1-0.2,0.1-0.3c0-0.2,0.1-0.4,0.2-0.6
				c0-0.1,0.1-0.2,0.1-0.2c0-0.3,0.1-0.4,0.2-0.7c0.1-0.2,0.2-0.3,0.3-0.2c0.1,0,0.2,0.1,0.2,0.3c0,0.1,0,0.3,0,0.4
				c0,0.2-0.1,0.4-0.1,0.6c0,0.5-0.1,1-0.2,1.4c-0.1,0.3-0.2,0.5-0.2,0.8c0,0,0,0.1,0,0.1c-0.2,0.3-0.2,0.7-0.3,1
				c-0.1,0.3-0.2,0.7-0.3,1c-0.1,0.4-0.2,0.8-0.3,1.2c0,0.2-0.1,0.4-0.1,0.6c0,0.1,0,0.2,0.1,0.3c0.1,0.2,0.2,0.3,0.4,0.2
				c0.2-0.1,0.4-0.2,0.5-0.3c0.1-0.1,0.2-0.2,0.4-0.3c0.1-0.1,0.1-0.1,0.2-0.2c0.2-0.2,0.3-0.4,0.5-0.7c0,0,0-0.1,0.1-0.1
				c0.2-0.1,0.3-0.4,0.4-0.6c0.1-0.2,0.2-0.4,0.4-0.6c0.1,0,0.1-0.1,0.2-0.1c0.1,0,0.1,0.1,0.1,0.2c0,0.2-0.1,0.4-0.1,0.5
				c-0.1,0.2-0.2,0.4-0.2,0.6c-0.1,0.3-0.1,0.6-0.3,0.8c-0.3,0.4-0.6,0.8-0.9,1.3c-0.1,0.2-0.3,0.5-0.4,0.7
				c-0.1,0.2-0.2,0.4-0.3,0.5c-0.3,0.2-0.4,0.6-0.5,0.9c-0.1,0.2,0,0.5,0.2,0.7c0.1,0,0.2,0,0.3,0c0,0,0.1,0,0.1,0
				c0.2-0.2,0.4-0.3,0.7-0.4c0,0,0.1-0.1,0.1-0.1c0-0.2,0.2-0.3,0.4-0.4c0.1-0.1,0.2-0.2,0.3-0.3c0.2-0.2,0.4-0.4,0.6-0.7
				c0,0,0.1,0,0.1-0.1c0.1-0.1,0.4-0.1,0.4,0c0.1,0.1,0,0.3,0,0.4c-0.2,0.4-0.4,0.7-0.6,1c-0.3,0.4-0.7,0.8-1,1.2
				c-0.2,0.2-0.3,0.4-0.5,0.6c-0.1,0.1-0.3,0.3-0.4,0.4c-0.1,0.1-0.1,0.2-0.2,0.3c-0.1,0.2,0,0.3,0.2,0.3c0.6,0,1.6,0,2.2-0.2
				c0.1,0,0.2,0,0.3,0c0.1,0,0.2,0.1,0.1,0.2c-0.2,0.2-0.3,0.3-0.5,0.4c-0.5,0.2-0.9,0.4-1.4,0.5c-0.3,0.1-0.5,0.2-0.7,0.3
				c-0.1,0.1-0.2,0.2-0.1,0.4c0.1,0.1,0.1,0.3,0.3,0.4c0.3,0.3,0.6,0.5,1,0.6c0.3,0,0.5,0.2,0.7,0.4c0.2,0.1,0.1,0.3-0.1,0.4
				c-0.3,0.1-0.6,0.1-0.9,0c-0.4-0.1-0.8-0.1-1.2-0.1c-0.1,0-0.3,0-0.4,0.1c-0.3,0.1-0.5,0.3-0.5,0.6c0,0.2-0.1,0.4-0.2,0.6
				c0,0.2,0,0.4-0.1,0.6c0,0.1,0,0.2,0,0.2c0,0.2-0.1,0.4-0.1,0.6c0,0.1,0,0.2,0,0.3c0,0.2-0.1,0.3-0.1,0.5c0,0.3,0,0.6-0.1,0.8
				c0,0.2-0.1,0.3,0,0.5c0,0.5,0,1-0.1,1.6c0,0.2-0.1,0.4-0.1,0.6c0,0.1,0,0.2,0,0.2c0,0.6-0.2,1.2-0.4,1.8
				c-0.1,0.2-0.2,0.5-0.4,0.7c-0.2,0.3-0.5,0.5-0.9,0.4c-0.2,0-0.5-0.1-0.7-0.1c-0.4-0.1-0.8-0.2-1.2-0.3c-0.2-0.1-0.5-0.2-0.7-0.4
				c-0.4-0.3-0.8-0.6-1.2-0.8c-0.1,0-0.1-0.1-0.2-0.2c-0.1-0.2-0.2-0.3-0.4-0.4c-0.1-0.1-0.2-0.2-0.3-0.4c-0.1-0.3-0.3-0.5-0.5-0.7
				c0,0-0.1-0.1-0.1-0.1c-0.1-0.2-0.3-0.4-0.5-0.6c-0.1-0.1-0.1-0.2-0.2-0.3c-0.1-0.3-0.4-0.6-0.7-0.8c-0.2-0.2-1-0.3-1.3-0.1
				c-0.2,0.1-0.2,0.3-0.3,0.6c0,0.1,0,0.3,0,0.4c0,0.1,0,0.3,0,0.4c0,0.2-0.2,0.2-0.3,0.1c-0.1-0.1-0.2-0.1-0.2-0.2
				c-0.1-0.1-0.2-0.2-0.3-0.3c0,0-0.1-0.1-0.1-0.2c-0.1-0.1-0.1-0.3-0.2-0.4c-0.2,0.1-0.2,0.2-0.2,0.4c0,0.3-0.1,0.6,0,0.9
				c0,0,0,0,0,0c0,0.2,0,0.4-0.2,0.4c-0.2,0.1-0.3,0-0.5-0.2c-0.1-0.1-0.1-0.1-0.2-0.2c-0.2-0.1-0.3-0.2-0.4-0.4
				c0-0.1-0.1-0.1-0.2-0.2c-0.2,0.2-0.3,0.4-0.2,0.6c0.1,0.3,0.1,0.6,0.1,1c0,0.1,0,0.2-0.1,0.3c-0.1,0.1-0.3,0-0.4-0.1
				c-0.1-0.1-0.2-0.1-0.2-0.2c-0.1-0.2-0.3-0.3-0.5-0.5c-0.2,0.2-0.3,0.4-0.2,0.6c0.1,0.2,0.2,0.4,0.2,0.6c0,0.1,0,0.1,0.1,0.2
				c0.2,0.3,0.3,0.7,0.5,1.1c0.2,0.5,0.5,0.8,0.9,1.2c0,0.1,0.1,0.1,0.2,0.1c0.2,0.4,0.5,0.6,0.8,0.8c0.5,0.3,0.9,0.7,1.5,0.8
				c0.1,0,0.1,0,0.2,0.1c0.6,0.3,0.7,0.3,1.3,0.4c0.1,0,0.1,0,0.2,0.1c0.2,0.1,0.4,0.1,0.6,0.1c0.2,0,0.4,0,0.5,0.1
				c0.1,0.1,0.3,0.1,0.4,0.1c0.2,0,0.5,0,0.7,0.1c0.1,0.1,0.3,0.1,0.4,0.1c0.2,0,0.3,0,0.5,0.1c0.3,0.2,0.6,0.3,1,0.4
				c0.1,0,0.1,0,0.2,0.1c0.1,0.2,0.3,0.2,0.5,0.2c0.1,0.2,0.2,0.3,0.4,0.4c0.2,0.2,0.5,0.4,0.6,0.6c0.1,0.2,0.2,0.4,0.2,0.5
				c0.1,0.5,0.2,1,0.3,1.4c0,0.1,0,0.1,0,0.2c-0.1,0.2-0.1,0.4-0.1,0.5c0,0.1,0,0.2-0.1,0.2c-0.1,0.1-0.1,0.2-0.2,0.4
				c-0.1,0.1-0.1,0.2-0.2,0.2c-0.1,0.1-0.2,0-0.3-0.1c-0.1-0.1-0.1-0.2-0.2-0.3c-0.1-0.1-0.1-0.2-0.2-0.3c-0.1,0-0.1-0.1-0.1-0.2
				c-0.1-0.1-0.1-0.3-0.3-0.4c-0.3,0.1-0.4,0.2-0.4,0.5c0,0.1,0,0.2-0.1,0.3c-0.1,0.1-0.1,0.2-0.1,0.2c-0.1,0.3-0.3,0.5-0.6,0.6
				c-0.2,0.1-0.3,0-0.4-0.2c0-0.1,0-0.1-0.1-0.2c0-0.2-0.1-0.4-0.1-0.6c0-0.1-0.1-0.2-0.1-0.3c-0.2,0-0.3-0.2-0.5-0.3
				c-0.1,0-0.1,0-0.2,0c-0.1,0-0.2,0.1-0.2,0.2c0,0.1,0,0.1,0,0.2c0,0.5-0.3,0.9-0.7,1.2c-0.2,0.2-0.5,0-0.6-0.3
				c0-0.1-0.1-0.3-0.1-0.4c-0.1-0.2-0.1-0.4-0.4-0.5c0,0-0.1,0-0.1-0.1c-0.3-0.3-0.7-0.4-1.2-0.5c-0.4-0.1-0.8-0.1-1.2-0.3
				c-0.1,0-0.2,0-0.2,0c-0.1,0-0.3-0.1-0.4-0.1c-0.1,0-0.2,0-0.3-0.1c-0.1,0-0.3-0.1-0.4-0.1c-0.5-0.1-0.9-0.2-1.4-0.4
				c-0.2-0.1-0.4-0.2-0.6-0.2c-0.2-0.1-0.3-0.1-0.5-0.2c-0.3,0-0.5-0.2-0.8-0.3c-0.1,0-0.2-0.2-0.4-0.2c-0.3-0.1-0.6-0.2-0.9-0.3
				c-0.1,0-0.1-0.1-0.2-0.1c-0.1,0-0.2-0.1-0.2-0.1c-0.1,0-0.2-0.1-0.3-0.1c-0.5-0.3-0.9-0.7-1.5-1c-0.3-0.1-0.5-0.3-0.8-0.5
				c-0.2-0.1-0.3-0.3-0.5-0.4c-0.4-0.3-0.9-0.7-1.3-1c-0.3-0.1-0.4-0.4-0.6-0.5c-0.3,0.1-0.4,0.1-0.3,0.4c0,0.1,0,0.3,0,0.4
				c0,0.4,0.2,0.8,0.5,1.1c0.1,0.1,0.2,0.2,0.3,0.2c0,0,0.1,0.1,0.1,0.1c0.3,0,0.5,0.2,0.8,0.3c0,0,0.1,0,0.1,0
				c0.3-0.1,0.6,0.1,0.8,0.2c0.3,0.1,0.5,0.1,0.8,0.2c0,0,0.1,0,0.1,0c0.4,0.3,0.8,0.5,1.2,0.8c0.3,0.3,0.5,0.7,0.6,1.1
				c0.1,0.3,0.1,0.7,0.1,1.1c0,0.1,0,0.1,0,0.2c-0.1,0.4-0.3,0.8-0.6,1.1c-0.1,0.1-0.2,0.2-0.3,0.2c-0.1,0.1-0.2,0.1-0.3,0.2
				c-0.2,0.2-0.5,0.1-0.6-0.1c-0.1-0.2-0.1-0.3-0.1-0.5c0-0.2-0.1-0.3-0.2-0.4c-0.1,0.2-0.3,0.3-0.4,0.5c-0.1,0.2-0.3,0.3-0.5,0.5
				c-0.2,0.2-0.6,0.2-0.8,0c0,0-0.1-0.1-0.1-0.1c0-0.2-0.1-0.3-0.1-0.5c0-0.1-0.1-0.2-0.2-0.3c-0.1,0.1-0.1,0.1-0.2,0.2
				c-0.1,0.1-0.2,0.2-0.2,0.3c-0.1,0.3-0.3,0.5-0.5,0.8c-0.1,0.1-0.3,0.2-0.5,0.1c0,0-0.1,0-0.1-0.1c-0.1-0.2-0.2-0.3-0.2-0.5
				c0-0.1,0-0.2-0.1-0.4c-0.1-0.3-0.3-0.5-0.6-0.6c-0.2,0-0.4-0.1-0.7-0.2c-0.2-0.1-0.3-0.1-0.5-0.1c-0.1,0-0.2,0-0.3,0
				c-0.5-0.1-0.9-0.2-1.4-0.3c-0.4-0.1-0.8-0.2-1.2-0.4c-0.5-0.2-0.9-0.4-1.4-0.6c0,0-0.1,0-0.1,0c-0.3-0.3-0.7-0.4-1.1-0.6
				c-0.1,0-0.2-0.1-0.2-0.2c-0.2-0.2-0.3-0.4-0.6-0.6c-0.1-0.1-0.1-0.2-0.2-0.3c-0.1-0.1-0.1-0.3-0.3-0.4C83.1,46.3,83,46.2,83,46
				c-0.1-0.3-0.3-0.5-0.4-0.8c0-0.1-0.1-0.1-0.1-0.2c-0.1-0.1-0.2-0.3-0.3-0.4c-0.1-0.4-0.3-0.7-0.6-1.1c0-0.1-0.1-0.1-0.1-0.2
				c0-0.1-0.1-0.2-0.1-0.3c-0.4,0-0.6,0.2-0.9,0.4c-0.1,0.1-0.2,0.1-0.3,0.2c-0.2,0.2-0.4,0.2-0.7,0.3c-0.2,0.1-0.4-0.2-0.3-0.4
				c0-0.2,0.1-0.3,0.1-0.5c0-0.1,0-0.2-0.2-0.2c-0.1,0-0.3,0-0.4-0.1c-0.2,0-0.3,0-0.5,0.1c0,0-0.1,0.1-0.2,0.1
				c-0.3,0.1-0.5,0.3-0.7,0.6c-0.1,0.1-0.3,0.2-0.5,0.2c-0.3,0.1-0.5-0.1-0.5-0.3c0-0.1,0-0.1,0-0.2c0-0.3,0.1-0.5,0.1-0.8
				c-0.2-0.2-0.4-0.3-0.7-0.4c-0.1,0-0.2,0-0.2,0.2c0,0.1,0,0.3,0.1,0.4c0.1,0.4,0.3,0.7,0.5,1.1c0.2,0.4,0.4,0.7,0.6,1.1
				c0.2,0.4,0.5,0.8,0.9,1.1c0.2,0.3,0.5,0.5,0.8,0.7c0.1,0.1,0.2,0.1,0.4,0.2c0.3,0.2,0.7,0.2,1,0.4c0,0,0.1,0,0.1,0
				c0.3,0.1,0.6,0.2,0.9,0.4c0.2,0.1,0.5,0.4,0.7,0.5c0.5,0.4,0.7,0.9,1,1.4c0.1,0.3,0.2,0.6,0.3,0.9c0,0,0,0,0,0.1
				c-0.1,0.4-0.1,0.9-0.3,1.3c-0.1,0.2-0.2,0.4-0.4,0.6c-0.1,0.1-0.2,0.1-0.3,0c-0.2-0.1-0.4-0.3-0.4-0.5c-0.1-0.4-0.4-0.6-0.7-0.8
				c-0.1,0-0.2,0.1-0.2,0.1c-0.1,0.1-0.1,0.1-0.1,0.2c0,0.1,0,0.2,0,0.3c0,0.2,0,0.4-0.2,0.6c-0.1,0.1-0.1,0.1-0.1,0.2
				c-0.2,0.3-0.5,0.3-0.7,0c-0.1-0.2-0.3-0.3-0.3-0.6c0-0.2-0.2-0.3-0.3-0.4c-0.1,0-0.3-0.1-0.4-0.1c-0.1,0-0.2,0-0.2,0
				c-0.2,0-0.3,0.1-0.3,0.2c0,0.2-0.1,0.4-0.3,0.5c-0.1,0-0.1,0.1-0.1,0.2c0,0.2-0.2,0.3-0.4,0.4c-0.2,0.1-0.4,0-0.4-0.2
				c-0.1-0.2-0.1-0.4-0.2-0.7c-0.1-0.2-0.2-0.4-0.4-0.5c0,0,0,0-0.1,0c-0.2-0.2-0.5-0.3-0.8-0.3c-0.1,0-0.1,0-0.2-0.1
				c-0.2-0.2-0.4-0.2-0.6-0.2c-0.4-0.1-0.8-0.1-1.3-0.2c-0.1,0-0.2-0.1-0.4-0.1c-0.3,0-0.5-0.1-0.8-0.2c-0.1,0-0.3,0-0.4-0.1
				c-0.1-0.2-0.3-0.2-0.6-0.3c-0.6-0.2-1.1-0.3-1.7-0.5c-0.2-0.1-0.4-0.2-0.5-0.3c-0.5-0.3-0.9-0.6-1.4-0.9
				c-0.2-0.2-0.4-0.4-0.6-0.6c-0.3-0.3-0.5-0.5-0.9-0.7c0,0-0.1,0-0.1-0.1c-0.1-0.2-0.3-0.3-0.5-0.5c-0.1-0.1-0.2-0.3-0.3-0.4
				c-0.2-0.3-0.4-0.6-0.7-0.8c-0.1-0.2-0.3-0.3-0.4-0.5c0,0,0,0,0-0.1c-0.3-0.4-0.6-0.8-0.9-1.3c-0.1-0.1-0.2-0.2-0.2-0.3
				c-0.1-0.1-0.1-0.2-0.2-0.1c-0.1,0-0.2,0.1-0.2,0.2c0,0.1-0.1,0.2,0,0.3c0,0.2,0,0.3,0,0.4c-0.1,0.7,0,1.4,0.5,2
				c0,0,0.1,0.1,0.1,0.1c0.1,0.3,0.4,0.6,0.7,0.8c0.1,0.1,0.3,0.2,0.5,0.3c0.3,0.1,0.6,0.3,0.8,0.4c0.3,0.2,0.6,0.4,0.9,0.6
				c0.3,0.2,0.5,0.5,0.7,0.8c0.1,0.2,0.2,0.4,0.3,0.5c0.1,0.2,0.2,0.4,0.2,0.6c0,0.1,0,0.1,0,0.2c0,0.3,0.1,0.6-0.1,0.9
				c-0.1,0.1-0.1,0.2-0.1,0.4c-0.1,0.3-0.3,0.5-0.6,0.6c-0.1,0-0.2,0-0.2-0.1c-0.1-0.2-0.2-0.3-0.2-0.5c-0.1-0.3-0.3-0.6-0.5-0.8
				c-0.1-0.2-0.4-0.2-0.5,0c-0.1,0.2-0.2,0.4-0.3,0.6c-0.1,0.1-0.1,0.3-0.3,0.3c-0.2,0.1-0.3,0.2-0.5,0.3c-0.3,0.2-0.6,0-0.6-0.4
				c0-0.3,0-0.5-0.2-0.7c-0.1-0.2-0.2-0.3-0.4-0.3c-0.1,0-0.2,0-0.3-0.1c-0.1,0-0.1,0.1-0.2,0.2c-0.2,0.1-0.3,0.2-0.3,0.4
				c0,0,0,0.1,0,0.1c-0.2,0.3-0.4,0.6-0.7,0.8c-0.1,0.1-0.4,0.1-0.5-0.1c-0.1-0.1-0.1-0.3-0.2-0.4c-0.1-0.2-0.1-0.4-0.1-0.7
				c0-0.2-0.1-0.3-0.3-0.4c-0.3-0.2-0.6-0.3-1-0.4c-0.2,0-0.4-0.2-0.6-0.2c-0.1-0.1-0.3-0.1-0.4-0.1c-0.3,0-0.6-0.2-0.9-0.3
				c-0.2-0.1-0.5-0.2-0.7-0.3c-0.2,0-0.4-0.1-0.5-0.2c-0.3-0.2-0.6-0.4-0.9-0.5c-0.3-0.2-0.6-0.4-0.9-0.5c-0.1-0.1-0.2-0.2-0.3-0.3
				c-0.1-0.2-0.2-0.3-0.3-0.4c-0.1-0.1-0.2-0.3-0.3-0.5c-0.1-0.2-0.2-0.4-0.3-0.6c-0.1-0.1-0.1-0.2-0.2-0.3c-0.2-0.5-0.4-1-0.6-1.4
				c0-0.1-0.2-0.2-0.1-0.3c0-0.3-0.1-0.6-0.1-0.8c0-0.2,0-0.5,0-0.7c0-0.2,0-0.4,0-0.7c0.1-0.5,0.1-1,0.2-1.6c0-0.1,0.1-0.2,0.1-0.3
				c0-0.1,0-0.2,0-0.3c-0.4-0.2-0.6-0.1-0.9,0.2c-0.1,0.1-0.3,0.3-0.5,0.4c0,0-0.1,0-0.1,0.1c-0.2,0.3-0.6,0.5-0.8,0.8
				c-0.1,0.1-0.2,0.1-0.3,0.2c-0.2,0.1-0.4,0.2-0.5,0.4c-0.2,0.2-0.4,0.2-0.5-0.1c0-0.1-0.1-0.2-0.1-0.3c0-0.1-0.1-0.2-0.1-0.3
				c-0.2-0.1-0.4,0-0.5,0.1c-0.1,0.1-0.3,0.2-0.4,0.3c-0.3,0.1-0.5,0.4-0.6,0.6c-0.2,0.2-0.3,0.5-0.6,0.6c0,0-0.1,0.1-0.1,0.1
				c-0.3,0.5-0.8,0.7-1.3,0.9c0,0-0.1,0-0.1,0c-0.3,0-0.5-0.2-0.4-0.5c0-0.1,0.1-0.2,0.1-0.3c0.1-0.2,0.2-0.4,0.3-0.6
				c0.2-0.2,0.1-0.4,0-0.7c-0.2-0.1-0.3,0-0.5,0.1c-0.1,0.1-0.2,0.2-0.4,0.3c0,0-0.1,0.1-0.1,0.1c-0.2,0-0.3,0.2-0.4,0.3
				c-0.1,0.1-0.3,0.2-0.4,0.4c-0.1,0.1-0.2,0.2-0.3,0.3c-0.2,0.2-0.4,0.4-0.5,0.6c0,0-0.1,0.1-0.1,0.1c-0.2,0-0.3,0.2-0.4,0.3
				c-0.2,0.2-0.4,0.4-0.6,0.6c-0.1,0.1-0.1,0.1-0.2,0.1c-0.2,0.1-0.4,0.2-0.6,0.3c-0.2,0.1-0.5-0.1-0.4-0.3c0-0.1,0.1-0.1,0.1-0.2
				c0.2-0.2,0.3-0.6,0.2-1c-0.1-0.1-0.2-0.1-0.4-0.2c0,0-0.1,0-0.1,0c-0.4,0-0.7,0.2-1,0.4c0,0,0,0-0.1,0c-0.2,0.2-0.3,0.4-0.5,0.6
				c-0.2,0.2-0.4,0.5-0.5,0.7c0,0-0.1,0.1-0.1,0.1c-0.2,0.1-0.4,0.3-0.5,0.5c-0.1,0.2-0.3,0.3-0.5,0.4c-0.1,0-0.2,0.2-0.3,0.3
				c-0.2,0.3-0.5,0.5-0.8,0.6c0,0-0.1,0.1-0.1,0.1c-0.1,0-0.3,0-0.4-0.1c-0.1-0.1-0.1-0.3,0-0.4c0.1-0.1,0.2-0.2,0.2-0.4
				c0-0.1,0.1-0.2,0.1-0.2c0.1-0.1,0.2-0.2,0.2-0.3c0-0.1,0.1-0.2,0.1-0.3c-0.3,0-0.6,0.1-0.7,0.4c-0.1,0.2-0.3,0.3-0.4,0.4
				c-0.4,0.3-0.7,0.7-1.1,1c0,0,0,0,0,0c-0.1,0.3-0.4,0.3-0.7,0.4c-0.1,0-0.2,0.1-0.2,0.1c-0.3,0.2-0.5,0.1-0.6-0.3
				c0-0.1,0-0.1,0-0.2c0.2-0.1,0.3-0.2,0.3-0.4c0-0.1,0.2-0.2,0.3-0.3c0.1-0.1,0-0.2,0.2-0.3c0.2-0.2,0.2-0.5,0-0.8
				c-0.2,0.2-0.4,0.2-0.6,0.4c-0.2,0-0.3,0.2-0.4,0.3c-0.1,0.1-0.3,0.2-0.4,0.3c-0.1,0.1-0.3,0.2-0.4,0.3c-0.2,0.3-0.5,0.4-0.8,0.6
				c-0.2,0.1-0.5,0.2-0.8,0.3c-0.1,0-0.2,0-0.2-0.1c0-0.1,0-0.2-0.1-0.4c0.4-0.4,0.7-0.8,0.9-1.3c0.1-0.2,0.1-0.4-0.1-0.5
				c0,0-0.1-0.1-0.1-0.1c-0.2,0-0.3,0.1-0.5,0.1c-0.2,0.3-0.5,0.3-0.8,0.5c-0.1,0-0.1,0-0.2,0.1c-0.1,0.1-0.3,0.1-0.4,0.2
				c-0.1,0.1-0.2,0.2-0.4,0.3c0,0-0.1,0-0.1,0.1c-0.2,0.2-0.3,0.3-0.6,0.4c-0.2,0.1-0.3,0.2-0.5,0.3c-0.1,0.1-0.1,0.1-0.3,0.1
				c-0.1,0-0.1,0-0.2,0.1c-0.2,0.1-0.5,0.3-0.7,0.4c-0.2,0.1-0.3,0.1-0.5,0.2c-0.3-0.3-0.3-0.7,0-0.9c0.3-0.3,0.4-0.4,0.5-0.7
				c0.3,0,0.5-0.2,0.6-0.4c0.1-0.2,0.2-0.5,0.2-0.8c-0.1,0-0.3,0-0.4,0c-0.1,0-0.1,0-0.2,0.1c-0.1,0-0.1,0.1-0.2,0.1
				c-0.1,0-0.2,0.1-0.3,0.1c-0.2,0.2-0.5,0.2-0.7,0.3c-0.4,0.2-0.9,0.3-1.3,0.4c-0.2,0.1-0.4,0.2-0.5,0.2c-0.2,0.1-0.4,0-0.6,0.1
				c-0.2,0-0.3,0.1-0.5,0.1c-0.3,0.1-0.5,0-0.6-0.3c0,0,0-0.1,0-0.1c0.2-0.1,0.4-0.2,0.5-0.3c0.1-0.1,0.1-0.2,0.2-0.3
				c0.2,0.1,0.4,0,0.5-0.1c0.1-0.1,0.2-0.1,0.3-0.2c0.2-0.1,0.4-0.2,0.5-0.4c0,0,0-0.1,0.1-0.1c0.2,0,0.3-0.3,0.5-0.3l0,0
				c0.1-0.1,0.1-0.2,0.2-0.3c0.1,0,0.1,0,0.2,0.1c0-0.1,0.1-0.2,0.3-0.3c0.2,0,0.3-0.1,0.5-0.3c0.1-0.1,0.1-0.2,0.2-0.3
				c-0.1-0.1-0.2-0.2-0.3-0.1c-0.1,0-0.2,0-0.3,0c-0.2,0.1-0.4,0-0.6,0.1c-0.4,0.1-0.9,0.2-1.3,0.1c0,0-0.1,0-0.1,0
				c-0.4,0.1-0.8,0.1-1.2,0.2c-0.3,0.1-0.6,0.1-0.9,0c0,0-0.1,0-0.1,0c-0.2,0-0.4,0.2-0.6,0.1c-0.2-0.1-0.4,0-0.5-0.1
				c-0.3,0-0.5-0.3-0.4-0.6c0-0.1,0.1-0.1,0.1-0.1c0.3-0.1,0.5-0.2,0.8-0.2c0.2,0,0.5-0.1,0.7-0.3c0.3,0,0.5,0,0.7-0.1
				c0.2-0.1,0.5-0.3,0.7-0.2c0.2,0,0.4-0.1,0.6,0c0,0,0,0,0.1,0c0.5-0.2,1-0.2,1.5-0.4c0.1,0,0.1-0.1,0.1-0.1c0,0,0.1-0.1,0.1-0.1
				c0.2,0,0.4-0.2,0.5-0.3c0-0.1,0-0.2-0.1-0.2c0,0-0.1,0-0.1,0c-0.1-0.1-0.2-0.2-0.4-0.1c-0.1,0-0.3-0.1-0.4,0c0,0-0.1,0-0.1,0
				c-0.1-0.1-0.3-0.1-0.5-0.1c-0.2,0-0.4,0-0.6-0.1c-0.1-0.1-0.2-0.1-0.4-0.1c-0.2,0-0.3-0.1-0.5-0.1c-0.4-0.1-0.5-0.2-0.6-0.6
				c0.1-0.2,0.2-0.3,0.5-0.3c0.1,0,0.3,0,0.4,0c0.1,0,0.2,0,0.3,0c0.1,0,0.1,0,0.2,0c0.1,0,0.2-0.1,0.3,0c0.6,0,1.1-0.1,1.7,0
				c0.2,0,0.5,0,0.8,0c0.2,0,0.4,0,0.6-0.1c0,0,0.1,0,0.1,0c0.3,0.2,0.5,0,0.8,0c0.2,0,0.4-0.2,0.6-0.4c0,0,0.1-0.1,0.1-0.2
				c0-0.3-0.1-0.6-0.4-0.7c-0.3-0.2-0.6-0.2-0.9-0.3c-0.4-0.1-0.7-0.2-0.9-0.7c0.1-0.1,0.1-0.2,0.2-0.3c0.1-0.1,0.3-0.1,0.5-0.1
				c0.4,0.1,0.7,0,1.1,0c0.1,0,0.3,0,0.4,0c0.1,0,0.3,0,0.5,0c0.2,0,0.4,0,0.6,0c0.4,0.1,0.8,0.1,1.1,0c0,0,0.1,0,0.1,0
				c0.5,0,0.9-0.3,1.1-0.7c0-0.2-0.1-0.3-0.2-0.3c-0.4-0.1-0.7-0.3-1.1-0.3c-0.1,0-0.2,0-0.2,0c-0.3-0.1-0.6-0.2-1-0.2
				c-0.4-0.1-0.5-0.3-0.3-0.7c0.1,0,0.1,0,0.2,0c0.2,0,0.4,0,0.7-0.1c0.1,0,0.1,0,0.2,0c0.4,0,0.8-0.1,1.3-0.1c0,0,0,0,0.1,0
				c0.7,0.1,1.4,0,2.2,0c0.5,0,0.9-0.2,1.3-0.5c0.3-0.2,0.4-0.5,0.3-0.9c-0.1-0.2-0.2-0.3-0.4-0.3c-0.3,0-0.5-0.1-0.8-0.2
				c-0.5-0.1-1-0.2-1.5-0.4c0,0-0.1,0-0.1,0c-0.1-0.1-0.2-0.2-0.2-0.3c0-0.2,0.1-0.2,0.3-0.2c0.1,0,0.3-0.1,0.4-0.1
				c0.4,0,0.8,0,1.2,0c0.3,0,0.6,0,0.9,0c0.3,0,0.7,0,1,0.1c0.2,0,0.4,0,0.7-0.1c0.2,0,0.4-0.1,0.7-0.1c0,0,0.1,0,0.1,0
				c0.3-0.2,0.6-0.2,0.9-0.5c0.1-0.1,0.3-0.2,0.4-0.3c0-0.4-0.2-0.6-0.5-0.7c-0.2,0-0.3-0.1-0.5-0.1c-0.2,0-0.3,0-0.4-0.1
				c-0.1-0.1-0.2-0.1-0.3,0c-0.4,0.1-0.9,0-1.3-0.1c-0.1,0-0.3-0.1-0.3-0.2c-0.1-0.2-0.1-0.4,0.1-0.5c0.2-0.1,0.3-0.1,0.5-0.1
				c0.6-0.1,1.3,0,1.9,0c0.2,0,0.3,0,0.5,0c0.2,0,0.3,0,0.5,0c0.4,0.2,0.9,0.1,1.3,0.1c0.1,0,0.2,0,0.3-0.1c0.3-0.1,0.5-0.2,0.8-0.3
				c0.2-0.1,0.4-0.2,0.5-0.3c0,0,0.1-0.1,0.1-0.1c0-0.1,0.1-0.2,0.2-0.3c0.2-0.2,0.3-0.4,0.3-0.6c0-0.1,0-0.2-0.2-0.3
				c-0.3-0.2-0.6-0.3-1-0.3c-0.2,0-0.3-0.1-0.5-0.1c-0.3,0-0.5-0.1-0.8,0c-0.3,0-0.5,0-0.8,0c-0.1,0-0.3,0-0.4,0c-0.1,0-0.2,0-0.3,0
				c-0.1,0-0.1,0-0.2-0.1c-0.1-0.1-0.1-0.2,0-0.3c0.2-0.1,0.5-0.2,0.7-0.3c0.4-0.1,0.9-0.2,1.3-0.2c0.3,0,0.6-0.1,0.9,0
				c0.1,0,0.1,0,0.2,0c0.4,0,0.8,0,1.1-0.1c0.4-0.1,0.8-0.1,1.2-0.1c0.3,0,0.6-0.1,0.9-0.3c0.1-0.1,0.3-0.2,0.4-0.2
				c0.2,0,0.4-0.2,0.5-0.4c0.1-0.1,0.2-0.3,0.3-0.4c0.1-0.1,0.1-0.2,0.2-0.4c0-0.2,0-0.3-0.2-0.4c-0.2-0.2-0.4-0.4-0.7-0.3
				c-0.4-0.2-0.8-0.1-1.3-0.1c-0.3,0-0.6-0.1-0.9-0.1c-0.2,0-0.5,0-0.7,0.1c-0.2,0-0.5,0-0.7-0.1c-0.2-0.1-0.2-0.2-0.1-0.4
				c0.3-0.3,0.6-0.4,1-0.4c0.2,0,0.4-0.1,0.6-0.1c0.1,0,0.2-0.1,0.3-0.1c0.3,0,0.6,0,0.9,0c0.1,0,0.1,0,0.2,0c0.4-0.1,0.9,0,1.3,0
				c0.5,0,1,0,1.6-0.2c0.2-0.1,0.4-0.1,0.6-0.2c0.2-0.1,0.3-0.2,0.4-0.3c0.2-0.3,0.5-0.5,0.6-0.8c0-0.1,0-0.2,0-0.3
				c-0.2-0.2-0.4-0.3-0.7-0.4c-0.3,0-0.6-0.1-0.9-0.2c-0.5-0.1-1-0.1-1.5-0.1c-0.4,0-0.7,0-1.1-0.1c-0.1,0-0.1,0-0.2,0
				c-0.3,0-0.4,0-0.4-0.4c0.2-0.1,0.3-0.2,0.5-0.3c0.7-0.2,1.4-0.3,2.1-0.4c0.2,0,0.4,0,0.6,0c0.3,0,0.6,0,0.9-0.1
				c0.3,0,0.6-0.1,0.9-0.1c0.2,0,0.3,0,0.5,0c0.5,0.1,0.9-0.1,1.3-0.3c0.1-0.1,0.3-0.1,0.4-0.1c0,0,0.1,0,0.1-0.1
				c0.1-0.1,0.2-0.2,0.3-0.2c0.2-0.1,0.3-0.4,0.4-0.6c0-0.1,0-0.3,0-0.4c-0.2-0.4-0.5-0.6-0.9-0.9c-0.1,0-0.2-0.1-0.3-0.1
				c-0.4,0-0.7-0.2-1.1-0.2c-0.2,0-0.4,0-0.6-0.1c-0.6-0.1-1.2-0.1-1.8-0.3c-0.2-0.1-0.4,0-0.5-0.1c-0.2-0.1-0.3-0.1-0.2-0.4
				c0,0,0-0.1,0-0.1c0.4-0.1,0.9-0.1,1.3-0.2c0.2,0,0.4,0,0.6,0c0.4,0,0.8,0.1,1.2,0c0.2,0.1,0.4,0,0.6,0c0.3,0,0.6,0,0.9,0.1
				c0,0,0.1,0,0.1,0c0.4,0,0.8,0,1.1,0c0.4,0,0.8,0.1,1.1-0.1c0.2-0.1,0.3-0.1,0.5-0.1c0.4,0,0.7-0.3,1.1-0.5c0.1,0,0.2-0.1,0.2-0.2
				c0.4-0.3,0.5-0.8,0.3-1.2c-0.1-0.2-0.3-0.4-0.5-0.5c-0.5-0.3-1-0.5-1.5-0.7c-0.1,0-0.1,0-0.2-0.1c-0.1,0-0.2-0.1-0.3-0.1
				c-0.5,0-0.9-0.3-1.4-0.2c-0.1,0-0.1,0-0.2,0c-0.2-0.1-0.5-0.1-0.7-0.2c-0.2-0.1-0.3-0.1-0.5-0.2c-0.1,0-0.2-0.1-0.1-0.3
				c0-0.1,0.1-0.2,0.2-0.2c0.1,0,0.2-0.1,0.3-0.1c0.5,0.1,0.9,0,1.4-0.1c0.1,0,0.3,0,0.4,0.1C50.8,10,51,10,51.2,10
				c0.5,0.1,0.9,0.1,1.4,0.2c0.1,0,0.2,0.1,0.2,0.1c0.2,0,0.3,0.1,0.5,0.1c0.2,0,0.4,0,0.6,0.1c0.3,0.1,0.5,0.1,0.8,0.2
				c0.3,0.1,0.5,0.1,0.8,0.1c0.1,0,0.1,0,0.2,0c0.5,0.1,1,0,1.4-0.3c0.1-0.1,0.3-0.1,0.4-0.2c0.6-0.4,0.7-1,0.2-1.5
				c-0.2-0.2-0.4-0.5-0.7-0.6c-0.4-0.4-1-0.6-1.5-0.8c-0.4-0.2-0.8-0.4-1.3-0.6c-0.2-0.1-0.5-0.2-0.7-0.3c-0.2-0.1-0.4-0.2-0.6-0.3
				c0,0-0.1-0.1-0.1-0.1c-0.1-0.1-0.2-0.2-0.1-0.3c0.1-0.1,0.2-0.1,0.3-0.1c0.1,0,0.2,0,0.3,0c0.4,0.1,0.8,0.2,1.1,0.3
				c0.3,0.1,0.6,0.2,0.9,0.3c0.7,0.2,1.2,0.6,1.9,0.8c0.6,0.2,1,0.5,1.6,0.6c0.2,0,0.3,0.1,0.5,0.2c0.5,0.1,1,0.2,1.5,0.1
				c0.2-0.1,0.5-0.1,0.8,0c0.1,0,0.2,0,0.2,0c0.1,0,0.2,0,0.3-0.1c0-0.1,0-0.1,0.1-0.2c0.2-0.3,0.2-0.5,0-0.8
				c-0.3-0.4-0.5-0.8-1-1.1c-0.4-0.3-0.8-0.6-1.2-0.8c-0.1-0.1-0.3-0.2-0.4-0.3c-0.2-0.2-0.5-0.3-0.8-0.5c-0.3-0.1-0.6-0.3-0.9-0.4
				c-0.2-0.1-0.4-0.3-0.5-0.6c0.1-0.2,0.3-0.1,0.4-0.1c0.3,0,0.6,0.1,0.9,0.2c0.1,0,0.2,0.1,0.3,0.2c0.4,0.2,0.9,0.4,1.3,0.6
				c0.3,0.1,0.5,0.3,0.7,0.5c0.3,0.3,0.6,0.5,1,0.7c0.5,0.3,0.9,0.6,1.3,0.9c0.1,0.1,0.3,0.2,0.4,0.3c0.5,0.3,1.1,0.5,1.7,0.6
				c0.1,0,0.2,0,0.2,0.1c0.3,0.1,0.6,0.2,1,0.1c0,0,0.1,0,0.1,0c0.2,0,0.4-0.1,0.5-0.2c0.1-0.1,0.1-0.3,0.1-0.5
				c-0.1-0.2-0.1-0.4-0.3-0.6c-0.1-0.2-0.3-0.4-0.4-0.5c-0.3-0.3-0.6-0.7-1-1c-0.1-0.1-0.3-0.2-0.4-0.3c0,0-0.1,0-0.1-0.1
				c-0.3-0.3-0.7-0.5-1.1-0.8c-0.3-0.2-0.7-0.5-1-0.7c-0.3-0.2-0.6-0.4-0.9-0.7c-0.1-0.1-0.1-0.2-0.1-0.4c0.2-0.1,0.3-0.2,0.5-0.1
				c0.3,0.1,0.5,0.2,0.8,0.3c0.3,0.1,0.6,0.3,0.8,0.4c0.1,0.1,0.3,0.1,0.4,0.2c0.2,0.1,0.3,0.2,0.5,0.3c0.4,0.2,0.7,0.5,1.1,0.7
				c0.4,0.2,0.7,0.4,1.1,0.6c0.2,0.1,0.5,0.3,0.7,0.5c0.2,0.1,0.4,0.3,0.5,0.5c0.3,0.3,0.7,0.5,1.1,0.7c0,0,0.1,0,0.1,0.1
				c0.2,0.2,0.5,0.2,0.7,0.4c0.2,0.1,0.5,0.1,0.7,0c0.2-0.1,0.4-0.2,0.4-0.4c0-0.3,0-0.6-0.1-0.8c-0.1-0.2-0.2-0.4-0.3-0.5
				c-0.1-0.1-0.2-0.3-0.3-0.4c-0.2-0.2-0.4-0.4-0.6-0.7c-0.2-0.3-0.6-0.6-0.9-0.8c-0.1-0.1-0.3-0.2-0.4-0.4c-0.3-0.4-0.5-0.7-0.9-1
				c-0.1-0.1-0.2-0.3-0.3-0.4c-0.1-0.1,0-0.2,0.1-0.3c0.2,0,0.3,0.1,0.5,0.2c0.3,0.2,0.6,0.4,0.8,0.6c0.3,0.2,0.6,0.5,0.9,0.8
				c0.4,0.3,0.7,0.6,1.1,0.9c0.1,0.1,0.2,0.2,0.3,0.3c0.3,0.2,0.5,0.5,0.8,0.7c0.1,0.1,0.2,0.2,0.4,0.3c0.3,0.2,0.6,0.4,0.8,0.6
				C74,5,74.2,5.1,74.5,5.3c0.4,0.3,0.8,0.4,1.2,0.3c0.2,0,0.4-0.2,0.4-0.4c0-0.2,0-0.4-0.1-0.6c-0.3-0.6-0.6-1.1-1-1.5
				c-0.2-0.3-0.5-0.5-0.7-0.7C74.1,2.3,74,2.2,73.9,2c-0.1-0.1-0.2-0.2-0.3-0.2C73.5,1.7,73,1.2,72.9,1c-0.1-0.1-0.1-0.2,0-0.3
				c0.1-0.1,0.2-0.1,0.3,0c0.2,0.1,0.5,0.2,0.7,0.3c0.2,0.1,0.4,0.3,0.6,0.5c0.4,0.4,0.8,0.7,1.2,1.1c0.3,0.3,0.6,0.5,0.9,0.8
				c0.1,0.1,0.2,0.1,0.2,0.2c0.3,0.3,0.5,0.6,0.8,0.8c0,0,0.1,0,0.1,0.1C78.1,4.8,78.6,5,79,5.3c0.1,0.1,0.3,0.1,0.4,0.2
				c0.2,0.1,0.3,0.1,0.5,0.2c0.4,0.1,0.8,0,1.1-0.3c0-0.1,0.1-0.1,0.1-0.2c0-0.4,0.1-0.8-0.1-1.2c-0.1-0.3-0.3-0.6-0.5-0.9
				c-0.1-0.2-0.3-0.5-0.5-0.7c-0.4-0.4-0.8-0.9-1.2-1.3c-0.2-0.2-0.3-0.3-0.4-0.5c-0.1-0.2-0.1-0.4,0.1-0.5C78.6,0,78.6,0,78.6,0z
				 M113.2,25.9c0.3-0.2,0.4-0.4,0.4-0.7c0-0.1,0-0.3-0.1-0.4c-0.2-0.7-0.3-1.3-0.5-2c-0.1-0.2-0.2-0.4-0.3-0.6
				c-0.4-0.5-0.6-1.2-1-1.7c0,0,0-0.1,0-0.1c-0.1-0.2-0.3-0.5-0.4-0.7c-0.2-0.3-0.5-0.5-0.7-0.8c-0.4-0.5-0.9-0.8-1.3-1.3
				c0,0-0.1-0.1-0.1-0.1c-0.4-0.2-0.6-0.5-1-0.7c-0.2-0.2-0.5-0.3-0.7-0.5c-0.3-0.2-0.6-0.3-0.9-0.5c-0.5-0.3-1-0.6-1.5-0.9
				c-0.4-0.2-0.9-0.4-1.3-0.7c-0.1-0.1-0.2-0.1-0.3-0.1c-0.2-0.1-0.4-0.1-0.5-0.2c-0.4-0.2-0.9-0.5-1.3-0.6
				c-0.6-0.3-1.3-0.5-1.9-0.7c-0.2,0-0.4-0.1-0.6-0.2c-0.5-0.3-1.1-0.4-1.7-0.6c-0.6-0.2-1.2-0.3-1.8-0.5c-0.2-0.1-0.4-0.1-0.6-0.2
				c-0.4-0.1-0.8-0.2-1.3-0.3c-0.4-0.1-0.8-0.2-1.3-0.3c-0.3,0-0.5-0.1-0.8-0.2c-0.5-0.1-1.1-0.2-1.6-0.3c-0.3-0.1-0.7-0.1-1-0.2
				C88.9,10,88.7,10,88.4,10c-0.2,0-0.3,0-0.5,0c-0.5-0.2-1-0.1-1.5-0.2c-0.1,0-0.2,0-0.3,0c-0.4-0.1-0.7-0.2-1.1-0.1
				c-0.1,0-0.3,0-0.4,0c-0.1,0-0.1,0-0.2,0c-0.2,0.1-0.4,0-0.6,0c-0.3-0.1-0.6,0-0.8,0c-0.2,0-0.3,0-0.5,0c-0.3,0-0.7,0-1-0.1
				c-0.2,0-0.4,0-0.6,0c-0.2,0-0.5,0-0.7,0c-0.1,0-0.3,0-0.4,0c-0.2,0.1-0.3,0.1-0.5,0.1c-0.3,0-0.5,0-0.8,0c-0.3,0-0.5,0-0.8,0
				c-0.5-0.1-1-0.1-1.5,0c-0.1,0-0.3,0-0.4,0c-0.3,0-0.5,0-0.8,0c-0.2,0-0.4,0-0.6,0c-0.3,0-0.5,0.1-0.8,0.1c-0.4,0-0.8,0-1.2,0
				c-0.1,0-0.3,0-0.4,0.1C72.1,10,72,10,71.9,10c-0.1,0-0.3,0-0.4,0c-0.3,0.1-0.7,0.1-1.1,0.2c-0.4,0.1-0.7,0.1-1.1,0.1
				c-0.1,0-0.1,0-0.2,0.1c-0.3,0.1-0.7,0.2-1,0.3c-0.8,0.1-1.5,0.3-2.3,0.4c-0.1,0-0.2,0.1-0.3,0.1c-0.2,0-0.3,0.1-0.5,0.1
				c-0.3,0.1-0.5,0.1-0.8,0.3c-0.1,0.1-0.3,0.2-0.4,0.2c-0.4,0-0.8,0.2-1.2,0.5c-0.3,0.2-0.7,0.3-1.1,0.4c-0.1,0-0.2,0-0.3,0.1
				c-0.2,0.1-0.5,0.3-0.7,0.4c-0.5,0.3-0.9,0.6-1.4,0.8c-0.1,0-0.1,0.1-0.2,0.1c-0.3,0.3-0.7,0.6-1.2,0.9c-0.2,0.1-0.4,0.3-0.6,0.4
				c-0.2,0.1-0.4,0.3-0.6,0.4c-0.2,0.2-0.4,0.4-0.6,0.6c-0.3,0.2-0.6,0.5-0.9,0.7c-0.4,0.2-0.6,0.5-0.9,0.8
				c-0.2,0.2-0.4,0.5-0.7,0.7c-0.1,0.1-0.2,0.2-0.3,0.3c-0.3,0.4-0.7,0.7-1,1.2c0,0,0,0.1-0.1,0.1c-0.3,0.3-0.6,0.6-0.9,0.9
				c0,0.1-0.1,0.1-0.2,0.1c-0.3,0.3-0.6,0.5-0.8,0.9c-0.1,0.2-0.3,0.3-0.5,0.4c-0.1,0.1-0.2,0.2-0.3,0.3c-0.2,0.3-0.5,0.6-0.7,0.8
				c-0.2,0.2-0.5,0.4-0.7,0.6c-0.2,0.2-0.4,0.3-0.5,0.5c-0.2,0.3-0.5,0.6-0.8,0.8c-0.1,0-0.1,0.1-0.2,0.1c-0.3,0.3-0.7,0.6-0.9,1
				c0,0-0.1,0-0.1,0.1c-0.1,0.1-0.2,0.2-0.3,0.3c-0.2,0.2-0.4,0.5-0.7,0.7c-0.1,0.1-0.3,0.2-0.3,0.3c-0.1,0.1-0.2,0.2-0.3,0.2
				c-0.1,0-0.2,0.1-0.3,0.2c-0.1,0.1-0.2,0.2-0.3,0.3c-0.4,0.3-0.7,0.5-1,0.9c0,0.1-0.1,0.1-0.2,0.1c-0.2,0.2-0.5,0.3-0.7,0.5
				c0,0-0.1,0.1-0.1,0.1c-0.1,0.2-0.3,0.4-0.6,0.5c-0.2,0.1-0.3,0.2-0.4,0.4c0,0.1-0.1,0.1-0.1,0.1c-0.3,0.1-0.6,0.4-0.8,0.7
				c-0.3,0.3-0.5,0.5-0.8,0.7c-0.1,0.1-0.3,0.2-0.4,0.3c-0.4,0.3-0.8,0.7-1.2,1c-0.4,0.3-0.7,0.6-1,0.9c-0.2,0.2-0.3,0.4-0.6,0.4
				c0,0-0.1,0-0.1,0.1c-0.2,0.2-0.4,0.4-0.7,0.5c-0.2,0.1-0.4,0.4-0.7,0.5c-0.1,0.1-0.2,0.2-0.3,0.3c-0.1,0.1-0.3,0.2-0.4,0.4
				c-0.1,0.1-0.2,0.2-0.3,0.3c-0.2,0.1-0.3,0.2-0.5,0.3c-0.1,0.2-0.3,0.3-0.5,0.4c-0.3,0.2-0.7,0.4-1,0.6c-0.3,0.2-0.5,0.4-0.8,0.7
				c-0.1,0.1-0.2,0.3-0.4,0.4c0,0-0.1,0.1-0.1,0.1c0,0.1-0.1,0.2-0.2,0.3c-0.2,0.2-0.5,0.4-0.5,0.7c0,0.1-0.1,0.2-0.1,0.2
				C29,41.6,29,41.9,29.2,42c0.3,0.3,0.7,0.6,1.1,0.6c0.2,0,0.3,0.1,0.5,0.1c0.6,0.2,1.2,0.1,1.9,0.1c0.3,0,0.6-0.1,1-0.1
				c0.2,0,0.3-0.1,0.5,0c0.3,0,0.6,0,0.9-0.1c0.4-0.1,0.8-0.2,1.2-0.3c0.4-0.1,0.7-0.3,1.1-0.3c0.1,0,0.1,0,0.2-0.1
				c0.4-0.3,0.8-0.3,1.2-0.5c0,0,0,0,0.1,0c0.5,0,1-0.2,1.4-0.5c0.1-0.1,0.2-0.1,0.3-0.1c0.4-0.2,0.9-0.4,1.4-0.5
				c0.1,0,0.2-0.1,0.2-0.1c0.1,0,0.1-0.1,0.2-0.1c0.3-0.1,0.5-0.2,0.8-0.3c0.4-0.1,0.7-0.3,1.1-0.5c0.4-0.2,0.8-0.4,1.2-0.5
				c0.4-0.1,0.8-0.2,1.2-0.4c0.1-0.1,0.2-0.1,0.3-0.2c0.1-0.1,0.3-0.1,0.4-0.2c0.1,0,0.1-0.1,0.2-0.1c0.4,0,0.8-0.2,1.2-0.4
				c0.2-0.1,0.4-0.2,0.6-0.3c0.2-0.1,0.4-0.2,0.6-0.3c0.1,0,0.2-0.1,0.3-0.1c0.5-0.2,1-0.2,1.5-0.5c0,0,0,0,0.1,0
				c0.2-0.1,0.4-0.1,0.6-0.2c0.2-0.1,0.5-0.2,0.7-0.2c0.3-0.1,0.7-0.1,1.1-0.2c0.3,0,0.5,0,0.8-0.1c0.3-0.1,0.5,0,0.8-0.1
				c0.3-0.1,0.7-0.1,1.1-0.1c0.2,0,0.4,0,0.6,0.1c0.2,0,0.3,0.1,0.5,0.1c0.1,0,0.3,0,0.4,0.1c0.2,0.1,0.3,0.1,0.5,0.1
				c0.1,0,0.2,0,0.3,0.1c0.1,0,0.2,0.1,0.3,0.1c0.7,0.3,1.3,0.6,1.8,1.1c0.6,0.5,1.1,1,1.4,1.7c0.1,0.1,0.1,0.2,0.2,0.3
				c0.1,0.2,0.2,0.3,0.3,0.5c0,0.1,0.1,0.2,0.1,0.2c0.3,0.4,0.5,0.8,0.8,1.2c0.3,0.5,0.7,1.1,1,1.6c0.2,0.3,0.5,0.7,0.7,1.1
				c0,0,0,0,0,0.1c0.2,0.3,0.4,0.6,0.7,0.9c0.3,0.4,0.7,0.9,1.1,1.3c0.1,0.1,0.2,0.1,0.2,0.2c0.1,0.1,0.1,0.1,0.2,0.2
				c0.3,0.4,0.9,0.6,1.2,1c0,0,0,0,0.1,0c0.3,0.2,0.5,0.3,0.8,0.5c0.3,0.2,0.7,0.4,1.1,0.5c0.1,0,0.1,0.1,0.2,0.1
				c0.1,0.1,0.2,0.2,0.4,0.2c0.1,0,0.1,0,0.2,0.1c0.1,0.1,0.3,0.1,0.5,0.2c0.4,0.1,0.7,0.2,1.1,0.3c0.1,0,0.1,0,0.2,0
				c0.2,0.1,0.4,0.2,0.7,0.1c0.1,0,0.1,0,0.2,0c0.1,0,0.2,0.1,0.3,0.1c0.3,0,0.6,0,0.9,0.1c0.1,0,0.1,0,0.2,0c0.1,0,0.2,0,0.3,0.1
				c0.6,0,1.5-0.1,2.1-0.2c0.3,0,0.5-0.2,0.7-0.4c0.1-0.1,0.1-0.3,0-0.4c-0.1-0.1-0.2-0.1-0.2-0.2c-0.1-0.1-0.2-0.2-0.3-0.3
				c-0.2-0.1-0.4-0.2-0.6-0.3c-0.1-0.1-0.3-0.2-0.4-0.3c-0.2-0.3-0.4-0.5-0.7-0.6c-0.1-0.2-0.3-0.3-0.4-0.5
				c-0.2-0.3-0.4-0.6-0.7-0.8c0,0,0-0.1-0.1-0.1c-0.2-0.3-0.4-0.6-0.6-0.9c-0.1-0.1-0.1-0.3-0.2-0.4c-0.1-0.3-0.2-0.6-0.4-0.8
				C74.1,43,74,42.8,74,42.6c0-0.2,0-0.3-0.1-0.5c0-0.2-0.1-0.3-0.2-0.5c0-0.2-0.1-0.3-0.1-0.5c0-0.2,0-0.4-0.1-0.6c0,0,0-0.1,0-0.1
				c0.1-0.2,0-0.4,0-0.7c0-0.4,0-0.8-0.1-1.2c0-0.1,0-0.2,0-0.3c0.1-0.4,0.1-0.7,0.1-1.1c0-0.2,0-0.3,0.1-0.5
				c0.1-0.2,0.1-0.4,0.1-0.6c0-0.2,0-0.4,0.1-0.5c0.1-0.3,0.1-0.5,0.1-0.8c0-0.1,0-0.2,0-0.2c0-0.3,0.1-0.6,0.3-0.9
				c0-0.1,0.1-0.1,0.1-0.2c0-0.4,0.2-0.8,0.3-1.1c0.1-0.5,0.3-0.9,0.5-1.3c0.2-0.4,0.4-0.8,0.6-1.2c0,0,0.1-0.1,0.1-0.1
				c0.1-0.1,0.2-0.2,0.2-0.3c0.1-0.2,0.2-0.4,0.4-0.5c0.2-0.2,0.4-0.4,0.6-0.7c0.2-0.4,0.5-0.6,0.8-0.9c0.2-0.2,0.4-0.2,0.7-0.3
				c0.1,0.2,0.1,0.3,0,0.4c-0.1,0.2-0.2,0.3-0.3,0.5c0,0.1-0.1,0.1-0.1,0.2c-0.1,0.1-0.2,0.3-0.3,0.5c-0.1,0.1-0.1,0.3-0.2,0.4
				c-0.2,0.4-0.4,0.9-0.7,1.3c0,0.1,0,0.1,0,0.2c0,0.5-0.2,0.9-0.3,1.3c-0.1,0.4-0.3,0.7-0.3,1.1c-0.1,0.5-0.3,0.9-0.3,1.3
				c0,0.4-0.2,0.7-0.2,1.1c0,0,0,0.1,0,0.1c-0.1,0.3-0.2,0.7-0.2,1c0,0.3-0.1,0.5-0.1,0.8c0,0.4,0,0.7-0.1,1c-0.1,0.4,0,0.9,0,1.3
				c0,0.1,0,0.2,0,0.2c0,0.2,0.1,0.3,0.3,0.3c0.2,0.1,0.4,0.1,0.5,0.2c0.4,0.1,0.7,0.1,1.1,0.3c0.2,0.1,0.5,0.1,0.7,0.1
				c0.2,0,0.3,0.1,0.5,0.1c0.2,0,0.3,0,0.5,0c0.2,0,0.3,0.1,0.5,0.1c0.1,0,0.2,0,0.2,0c0.4,0,0.8,0,1.1,0c0.2,0,0.3,0,0.5,0
				c0.4-0.1,0.7-0.2,1.1-0.1c0.3-0.1,0.6-0.1,1-0.1c0.2,0,0.4,0,0.5,0.3c0.1,0.3,0.2,0.6,0.1,0.9c-0.1,0.3-0.2,0.7-0.1,1.1
				c0,0,0,0,0,0.1c0,0.4,0.2,0.8,0.3,1.2c0,0.1,0.1,0.1,0.1,0.2c0.1,0.2,0.3,0.4,0.4,0.6c0.2,0.3,0.4,0.6,0.7,0.9
				c0.3,0.2,0.5,0.4,0.8,0.6c0.1,0.1,0.2,0.2,0.4,0.2c0.3,0,0.5,0.2,0.8,0.3c0.4,0.2,0.8,0.3,1.2,0.5c0.1,0,0.2,0.1,0.2,0.1
				c0.6,0.1,1.2,0.2,1.7,0.4c0.2,0,0.3,0.1,0.5,0.1c0.4,0,0.7,0.1,1.1,0c0.2,0,0.4-0.1,0.6,0c0.2,0.1,0.4,0.1,0.6-0.1
				c0.1,0,0.1-0.1,0.1-0.2c0-0.2,0-0.4-0.1-0.5c-0.2-0.1-0.4-0.3-0.6-0.4c-0.2-0.1-0.4-0.2-0.6-0.3c-0.1-0.1-0.3-0.2-0.4-0.3
				c-0.4-0.2-0.7-0.5-0.9-0.9c-0.1-0.1-0.2-0.2-0.2-0.3c-0.1-0.1-0.2-0.3-0.3-0.5c-0.2-0.3-0.3-0.7-0.3-1.1c-0.1-0.3-0.1-0.7,0.1-1
				c0-0.1,0-0.1,0-0.2c0-0.1,0-0.2,0.1-0.3c0.1-0.1,0.2-0.2,0.1-0.4c-0.1-0.3-0.1-0.7-0.5-0.9c-0.1,0-0.1-0.1-0.2-0.2
				c-0.2-0.2-0.4-0.5-0.6-0.8c-0.1-0.1-0.1-0.1-0.2-0.1c-0.3-0.1-0.6-0.3-1-0.4c-0.2-0.1-0.4-0.1-0.6-0.2c-0.4-0.2-0.8-0.2-1.2-0.3
				c-0.7,0-1.4-0.1-2.1-0.1c-0.1,0-0.1,0-0.2,0c-0.4-0.1-0.7-0.2-1.1-0.3c-0.1,0-0.2-0.1-0.2-0.2c0-0.1,0.1-0.2,0.2-0.3
				c0.1,0,0.2-0.1,0.4-0.1c0.3,0,0.6,0,0.9-0.1c0.2,0,0.5,0,0.7,0c0.3,0,0.6,0,0.9,0c0.3,0,0.5-0.1,0.8-0.2c0.2,0,0.5-0.1,0.7-0.2
				c0.4-0.1,0.5-0.6,0.2-0.9c-0.1-0.1-0.2-0.1-0.3-0.2c-0.2-0.1-0.4-0.1-0.6-0.2c-0.1,0-0.2,0-0.3-0.1c-0.1,0-0.2,0-0.3,0
				c-0.3,0-0.6-0.1-0.9-0.1c-0.5,0-1-0.1-1.5-0.1c-0.1,0-0.1,0-0.2-0.1c-0.2-0.1-0.3-0.2-0.2-0.3c0-0.1,0.1-0.2,0.3-0.2
				c0,0,0.1,0,0.1,0c0.5-0.1,1-0.2,1.5-0.3c0.3-0.1,0.7-0.1,1-0.2c0.2-0.1,0.4-0.1,0.4-0.4c0-0.1,0.1-0.1,0.1-0.1
				c0.2-0.2,0.2-0.4-0.1-0.6c-0.2-0.1-0.5-0.2-0.7-0.3c0,0-0.1,0-0.1,0c-0.2,0.1-0.4,0-0.6,0c-0.1,0-0.2,0-0.3,0c-0.2,0-0.4,0-0.6,0
				c-0.2,0-0.4,0-0.7,0c-0.1,0-0.3,0-0.4,0c-0.1,0-0.3-0.1-0.3-0.3c0-0.2,0.1-0.2,0.2-0.3c0.4-0.2,0.7-0.4,1.1-0.4c0,0,0.1,0,0.1,0
				c0.3-0.1,0.6-0.3,0.9-0.4c0.2-0.1,0.3-0.2,0.4-0.3c0.2-0.3,0.1-0.6-0.2-0.7c-0.3-0.1-0.5-0.3-0.8-0.3c-0.4-0.1-0.8-0.1-1.2-0.2
				c-0.1,0-0.2-0.1-0.3-0.1c-0.1,0-0.1-0.1-0.1-0.2c0-0.1,0-0.2,0.2-0.3c0.1,0,0.1,0,0.2,0c0.6-0.1,1.2-0.2,1.8-0.3
				c0.4-0.1,0.7-0.1,1.1-0.3c0.1,0,0.2-0.1,0.2-0.2c0.1-0.1,0.1-0.2,0.1-0.4c0-0.2,0-0.3-0.2-0.4c-0.1-0.1-0.3-0.2-0.4-0.3
				c-0.2-0.1-0.4-0.3-0.6-0.4c-0.1,0-0.1-0.1-0.1-0.2c0-0.1,0-0.2,0.1-0.2c0.2,0,0.3-0.1,0.5,0c0.2,0.1,0.4,0.1,0.6,0.1
				c0.1,0,0.1,0,0.2,0c0.3,0.1,0.7,0.2,1,0.1c0,0,0,0,0,0c0.4,0,0.5,0.2,0.4,0.5c0,0,0,0.1,0,0.1c-0.2,0.2-0.2,0.6-0.4,0.8
				c-0.1,0.2-0.1,0.5-0.1,0.7c0,0.2,0,0.4,0,0.6c0,0.3-0.1,0.6,0,0.9c0,0.4,0.1,0.8,0.2,1.2c0.1,0.4,0.2,0.8,0.3,1.1
				c0.1,0.1,0.1,0.3,0.2,0.4c0.1,0.3,0.2,0.7,0.4,1c0.1,0.2,0.2,0.5,0.3,0.8c0.1,0.3,0.2,0.5,0.3,0.7c0.3,0.5,0.7,0.9,0.9,1.4
				c0.2,0.5,0.6,0.8,0.9,1.3c0.2,0.2,0.4,0.4,0.6,0.7c0,0.1,0.2,0.2,0.2,0.3c0.1,0.1,0.1,0.1,0.2,0.2c0.3,0.4,0.7,0.8,1,1.1
				c0.1,0.1,0.1,0.1,0.2,0.2c0.2,0.2,0.5,0.3,0.7,0.6c0,0.1,0.1,0.1,0.2,0.2c0.3,0.2,0.5,0.4,0.8,0.7c0.1,0.1,0.2,0.2,0.3,0.3
				c0.4,0.4,0.9,0.6,1.4,1c0.1,0.1,0.3,0.2,0.4,0.3c0.4,0.2,0.7,0.4,1.1,0.7c0.1,0.1,0.3,0.2,0.4,0.3c0.3,0.2,0.7,0.4,1,0.5
				c0.1,0.1,0.2,0.1,0.3,0.1c0.3,0.1,0.5,0.3,0.8,0.3c0,0,0.1,0,0.1,0.1c0.3,0.2,0.6,0.3,0.9,0.3c0.2,0,0.5,0,0.7,0.1
				c0.2,0.1,0.4,0.1,0.6,0.1c0.1,0,0.2,0,0.3,0.1c0.2,0.1,0.4,0.1,0.5,0.1c0.2,0,0.5,0,0.7,0.1c0.3,0.1,0.7,0.1,1,0
				c0.1,0,0.1,0,0.2,0c0.2,0,0.4,0,0.6,0c0,0,0.1,0,0.1,0c0.1-0.1,0.4,0,0.5-0.2c0.2,0,0.3-0.1,0.4-0.2c0.1,0,0.2-0.1,0.2-0.2
				c0-0.1,0-0.3-0.2-0.4c-0.3-0.1-0.6-0.3-0.9-0.4c-0.5-0.1-0.9-0.3-1.4-0.4c-0.4-0.1-0.8-0.3-1.2-0.5c-0.1-0.1-0.2-0.2-0.3-0.2
				c-0.6-0.3-1.2-0.7-1.8-1.1c-0.1-0.1-0.1-0.1-0.2-0.1c-0.2-0.2-0.4-0.3-0.7-0.5c0,0,0,0,0,0c-0.2-0.3-0.5-0.5-0.7-0.8
				c-0.2-0.3-0.4-0.6-0.6-0.9c-0.1-0.4-0.3-0.7-0.4-1.1c-0.1-0.5-0.2-1-0.2-1.4c0-0.2,0-0.4,0.1-0.5c0.1-0.1,0.2-0.3,0.2-0.5
				c0.2-0.1,0.3-0.2,0.4-0.4c0-0.1,0.1-0.1,0.1-0.2c0.2-0.2,0.4-0.3,0.5-0.5c0,0,0.1-0.1,0.1-0.1c0.1,0,0.1-0.1,0.2-0.1
				c0.2-0.3,0.5-0.4,0.7-0.5c0.3-0.1,0.6-0.2,0.7-0.4c0,0,0.1-0.1,0.1-0.1c0.4-0.1,0.8-0.4,1.2-0.5c0,0,0.1,0,0.1,0
				c0.2-0.1,0.3-0.1,0.5-0.2c0.4,0,0.7-0.3,1-0.4c0.1,0,0.2-0.1,0.3-0.1c0.4-0.1,0.8-0.1,1.2,0c0.2,0,0.4,0.1,0.6,0.3
				c0.1,0.1,0.2,0.2,0.3,0.4c0,0.1,0.1,0.2,0.2,0.3c0.5,0.5,0.9,1.1,1.1,1.7c0.1,0.1,0.1,0.3,0.2,0.4c0.3,0.4,0.7,0.8,1,1.2
				c0.1,0.1,0.1,0.1,0.2,0.2c0.3,0.1,0.5,0.3,0.8,0.4c0.2,0.1,0.4,0.2,0.6,0.1c0.2,0,0.5,0,0.7,0.1c0.1,0.1,0.5,0,0.6-0.1
				c0.2-0.2,0.4-0.6,0.5-0.9c0.1-0.3,0.1-0.7,0.2-1c0-0.2,0.1-0.4,0.1-0.6c0.1-0.2,0.1-0.4,0.1-0.6c0-0.3,0-0.7,0-1
				c0-0.2,0-0.5,0.1-0.8c0.1-0.3,0.1-0.5,0.1-0.8c0-0.2,0-0.3,0-0.5c0.1-0.4,0.1-0.7,0.1-1.1c0-0.2,0-0.4,0-0.6c0.1-0.5,0.1-1,0-1.4
				c-0.1-0.5-0.3-0.9-0.5-1.4c-0.1-0.4-0.5-0.7-0.7-1.1c-0.1-0.2-0.3-0.3-0.5-0.4c-0.2-0.1-0.3-0.2-0.5-0.3c0,0-0.1,0-0.1,0
				c-0.1,0-0.2-0.1-0.3-0.1c-0.3-0.2-0.6-0.2-0.9-0.2c-0.4,0-0.7-0.1-1.1,0c-0.2-0.1-0.3,0-0.5,0c-0.3,0.1-0.5,0.1-0.8,0.2
				c-0.3,0.1-0.6,0.2-0.9,0.3c-0.1,0-0.1,0.1-0.2,0.1c-0.3,0-0.6,0.2-0.8,0.5c-0.2,0.1-0.3,0.3-0.4,0.5c-0.2,0.3-0.3,0.6-0.4,0.9
				c0,0.1,0,0.2,0,0.3c0,0.3,0.1,0.6,0.1,0.8c0,0.3-0.2,0.5-0.5,0.4c-0.1,0-0.3-0.1-0.4-0.2c-0.4-0.2-0.7-0.2-1.1-0.3
				c-0.4-0.1-0.8-0.2-1.2-0.2c-0.2,0-0.4-0.1-0.5-0.3c-0.1-0.2-0.1-0.3,0.1-0.4c0.1-0.1,0.3-0.1,0.5-0.2c0.3,0,0.6,0,0.9,0
				c0.2,0,0.3,0,0.5,0.1c0.2,0.1,0.4,0,0.6-0.1c0.1-0.1,0.2-0.2,0.3-0.3c0.2-0.3,0.3-0.6,0.2-1c-0.1-0.4-0.4-0.6-0.7-0.8
				c-0.3-0.2-0.7-0.4-1.1-0.6c-0.1,0-0.2-0.1-0.2-0.2c-0.1-0.1-0.1-0.3-0.1-0.4c0.1-0.1,0.2-0.1,0.3-0.1c0.3,0,0.5,0.1,0.8,0.2
				c0.3,0.1,0.6,0.2,0.9,0.3c0.1,0.1,0.2,0,0.3,0.1c0.2,0.2,0.5,0.2,0.7,0.2c0.4,0.1,0.7,0,0.9-0.2c0.4-0.3,0.4-0.6,0.2-0.9
				c-0.3-0.5-0.7-0.8-1-1.2c0,0-0.1-0.1-0.1-0.1c-0.3-0.2-0.6-0.4-0.9-0.6c-0.1,0-0.1-0.1-0.2-0.2c-0.2-0.2-0.2-0.3,0-0.5
				c0.3,0,0.6,0.1,0.9,0.2c0.5,0.3,0.9,0.5,1.3,0.8c0.3,0.2,0.6,0.5,1,0.7c0.1,0.1,0.2,0.2,0.4,0.3c0.2,0.1,0.3,0.2,0.4,0.3
				c0.1,0.1,0.3,0.2,0.5,0.2c0.1,0,0.3,0.1,0.4,0.1c0.4,0.2,0.8,0,0.9-0.4c0-0.1,0-0.2,0-0.3c0.1-0.1,0.1-0.3,0-0.4
				c-0.1-0.3-0.1-0.7-0.4-1c-0.1-0.2-0.2-0.4-0.3-0.6c0-0.1-0.1-0.3-0.2-0.4c-0.2-0.4-0.5-0.7-0.7-1.1c0,0-0.1-0.1-0.1-0.1
				c0,0,0-0.1,0-0.1c0-0.2,0.1-0.4,0.3-0.3c0.2,0.1,0.4,0.2,0.5,0.3c0.3,0.3,0.6,0.6,0.8,1c0.3,0.4,0.6,0.7,0.7,1.1
				c0.3,0.7,0.6,1.3,1,1.9c0.1,0.1,0.1,0.2,0.3,0.3C112.7,25.7,112.9,25.8,113.2,25.9z M55.8,38.5c-0.2,0-0.3,0-0.5,0
				c-0.2,0-0.3,0.1-0.4,0.2c-0.2,0.2-0.3,0.5-0.4,0.7c-0.3,0.6-0.5,1.2-0.5,1.8c0,0.2,0,0.4,0,0.6c0,0.1,0,0.2,0,0.3
				c-0.1,0.3-0.1,0.6,0,0.9c0.1,0.2,0.1,0.5,0.1,0.7c0.1,0.5,0.2,0.9,0.5,1.3c0.2,0.3,0.3,0.6,0.6,0.9c0.2,0.3,0.4,0.6,0.8,0.7
				c0.2,0.1,0.5,0.2,0.7,0.4c0.5,0.3,1,0.5,1.5,0.7c0.3,0.1,0.7,0.3,1.1,0.3c0.1,0,0.1,0,0.2,0.1c0.2,0.1,0.3,0.1,0.5,0.1
				c0.3,0,0.5,0,0.8,0c0.2,0,0.4,0,0.7,0c0,0,0.1,0,0.1-0.1c0.2-0.2,0.4-0.5,0.2-0.8c-0.2-0.3-0.3-0.6-0.4-0.9
				c-0.1-0.5-0.3-0.9-0.5-1.4c-0.2-0.4-0.2-0.8-0.2-1.3c0-0.1,0-0.3,0-0.5c0-0.2,0-0.4,0-0.5c0.1-0.3,0.2-0.5,0.3-0.8
				c0-0.1,0-0.1,0.1-0.2c0.1-0.1,0.2-0.3,0.3-0.5c0.1-0.3,0.1-0.5-0.1-0.7c-0.3-0.2-0.5-0.5-0.8-0.7c-0.3-0.3-0.7-0.5-1.1-0.6
				c-0.1,0-0.2-0.1-0.2-0.1c-0.3-0.1-0.6-0.3-0.9-0.4c-0.2-0.1-0.4-0.1-0.5-0.1C56.8,38.6,56.3,38.5,55.8,38.5z"/>
		</g>
		<g>
			<path class="st0" d="M23,44.4c0,0-0.1,0-0.1,0c0,0,0,0,0-0.1C22.9,44.4,22.9,44.4,23,44.4L23,44.4z"/>
		</g>
		<g>
			<path class="st0" d="M113.4,32.5c0,0.3-0.1,0.4-0.3,0.5c-0.2,0.1-0.4,0.3-0.6,0.3c-0.1,0-0.2,0.1-0.3,0.2
				c-0.6,0.5-1.2,0.7-1.9,0.8c-0.1,0-0.3,0-0.4,0c-0.3-0.1-0.6-0.1-0.9-0.3c-0.4-0.2-0.8-0.5-1.1-0.7c-0.4-0.3-0.7-0.7-1-1
				c-0.2-0.2-0.2-0.3-0.1-0.5c0.1-0.4,0.3-0.6,0.5-0.9c0.1-0.1,0.2-0.1,0.3-0.2c0.2-0.1,0.4-0.2,0.6-0.4c0.3-0.2,0.7-0.3,1.1-0.3
				c0.4,0,0.7,0.1,1.1,0.1c0.1,0,0.3,0.1,0.4,0.1c0.1,0,0.2,0.1,0.3,0.1c0,0,0.1,0,0.1,0c0.2,0.2,0.5,0.2,0.7,0.4
				c0.1,0.2,0.3,0.3,0.5,0.5c0.3,0.3,0.6,0.6,0.9,0.9C113.4,32.3,113.4,32.4,113.4,32.5z M110.8,31.3c0,0.1,0,0.2,0.1,0.2
				c0.1,0.1,0.1,0.1,0.2,0.2c0.3,0.3,0.3,0.8,0,1c-0.3,0.3-0.7,0.5-1.2,0.4c-0.5-0.1-0.8-0.4-0.7-0.9c0-0.1,0.1-0.3,0.2-0.4
				c0.3-0.3,0.6-0.5,1-0.4c0,0,0.1,0,0.2,0c-0.3-0.2-0.8-0.3-1-0.3c-0.3,0.1-0.7,0.1-1,0.2c-0.4,0.2-0.5,0.4-0.4,0.8
				c0.1,0.3,0.4,0.6,0.6,0.8c0.2,0.2,0.4,0.3,0.6,0.3c0.1,0,0.1,0,0.2,0.1c0.2,0.2,0.4,0.2,0.7,0.2c0.1,0,0.2,0,0.2,0
				c0.2,0.1,0.4,0,0.6-0.1c0.2-0.1,0.3-0.2,0.4-0.3c0.3-0.2,0.4-0.5,0.4-0.8c0-0.2-0.1-0.4-0.2-0.5c-0.1-0.1-0.3-0.2-0.4-0.3
				C111.1,31.5,111,31.4,110.8,31.3z"/>
		</g>
	</g>
</g>
<g>
	<path class="st0" d="M20.7,71.7c-0.3,1.8-0.9,3.7-1.6,5.6c-0.8,1.9-1.9,3.6-3.2,5.1c-1.3,1.4-2.6,2.5-4.1,3.3s-3.1,1.3-4.9,1.3
		c-1.6,0-2.9-0.3-3.9-0.9c-1-0.6-1.7-1.4-2.2-2.5c-0.5-1-0.8-2.2-0.8-3.5c-0.1-1.3,0-2.7,0.3-4c0.3-2.1,1-4.1,2-6.1
		c0.6-1.2,1.3-2.3,2.2-3.5c0.8-1.1,1.8-2.1,2.8-2.9c1-0.9,2.2-1.5,3.4-2c1.2-0.5,2.5-0.7,3.9-0.7c1.6,0,2.9,0.3,3.8,0.9
		c0.9,0.6,1.6,1.4,2,2.5c0.4,1,0.6,2.2,0.7,3.5C21,69.1,20.9,70.4,20.7,71.7z M12,63.3c-1.4,0-2.6,0.4-3.6,1.1
		c-1,0.7-1.8,1.7-2.4,2.8s-1.1,2.3-1.4,3.6c-0.3,1.3-0.6,2.5-0.8,3.6c-0.1,0.4-0.1,0.7-0.2,1.1c-0.1,0.4-0.1,0.7-0.1,1.1
		c-0.2,2.4,0.1,4.2,1.1,5.7c1,1.4,2.7,2.1,5.2,2.1c1.2,0,2.2-0.3,3-0.9c0.9-0.6,1.6-1.3,2.2-2.2c0.6-0.9,1.1-1.9,1.4-2.9
		c0.4-1.1,0.6-2,0.7-3c0.1-0.8,0.2-1.6,0.3-2.5c0.1-0.9,0.1-1.8,0-2.7c0-0.9-0.2-1.8-0.4-2.6c-0.2-0.8-0.5-1.5-0.9-2.2
		c-0.4-0.6-1-1.1-1.6-1.5C13.8,63.5,13,63.3,12,63.3z"/>
	<path class="st0" d="M36.1,86.6c0,0.1,0,0.1-0.1,0.2c-0.1,0-0.2,0.1-0.2,0.1c-0.3,0-0.4,0-0.5,0c-0.1,0-0.2,0-0.3,0
		c-0.1,0-0.2,0-0.4-0.1c-0.2,0-0.5,0-0.9,0c-0.5,0-1,0-1.4,0.1c-0.5,0-0.8,0.1-0.9,0.1c-0.1,0-0.2-0.2-0.4-0.6
		c-0.1-0.4-0.3-0.8-0.5-1.3l-2.9-6.2c-0.2-0.4-0.3-0.6-0.4-0.8c-0.1-0.2-0.2-0.3-0.4-0.3H26l-1.7,9c-0.3,0-0.5,0-0.8,0
		c-0.2,0-0.5,0-0.8,0c-0.2,0-0.4,0-0.6,0c-0.2,0-0.4,0-0.6,0c-0.1,0,0-0.3,0.2-1c0.2-0.7,0.4-1.5,0.6-2.4c1-4.3,1.8-8.3,2.5-12
		c0.7-3.8,1.2-7.5,1.6-11.2c0.1-0.6,0.1-1,0-1.4c0-0.3-0.1-0.5-0.2-0.7s-0.2-0.2-0.3-0.3c-0.1,0-0.3,0-0.4,0c-0.2,0-0.4,0-0.6,0
		c-0.2,0-0.4,0-0.7,0c-0.2,0-0.4-0.1-0.4-0.2c-0.1-0.1-0.1-0.2,0-0.4c0-0.4,0.2-0.5,0.7-0.5c0.2,0,0.4,0,0.6,0c0.2,0,0.4,0,0.7,0
		c1.1,0,2-0.1,2.7-0.3c0.7-0.2,1.2-0.3,1.5-0.3c0.2,0,0.2,0.1,0.2,0.3c0,0.1,0,0.2-0.1,0.4c-0.1,0.2-0.1,0.3-0.2,0.5
		c-0.1,0.7-0.3,1.7-0.6,2.7c-0.2,1.1-0.5,2.3-0.7,3.5c-0.2,1.2-0.5,2.5-0.7,3.7c-0.2,1.3-0.5,2.4-0.7,3.5c-0.2,1.1-0.4,2-0.5,2.7
		c-0.1,0.7-0.2,1.2-0.3,1.4c0.3-0.5,0.8-1.2,1.4-2c0.6-0.8,1.3-1.7,2-2.5c0.8-0.8,1.5-1.5,2.3-2.1c0.8-0.6,1.6-0.9,2.3-0.9
		c0.4,0,0.7,0.1,1,0.3c0.3,0.2,0.5,0.4,0.7,0.6s0.3,0.5,0.3,0.8c0.1,0.3,0.1,0.6,0,0.9c-0.1,1.1-0.4,2-0.9,2.9
		c-0.5,0.8-1.1,1.6-1.7,2.2c-0.7,0.6-1.4,1.1-2.2,1.5c-0.8,0.4-1.5,0.6-2.1,0.8c0.3,0.5,0.6,1.2,1.1,2.1c0.5,0.9,1,1.8,1.5,2.6
		c0.5,0.9,1,1.7,1.4,2.4c0.5,0.7,0.8,1.1,1,1.3c0.4,0.3,0.7,0.5,0.9,0.4c0.1,0,0.3,0,0.3,0C36.1,86.4,36.1,86.5,36.1,86.6z
		 M33.3,72.2c0.1-0.5,0-0.9-0.1-1.3c-0.2-0.3-0.5-0.5-1-0.5c-0.5,0-1,0.2-1.6,0.7s-1.1,1.1-1.7,1.7c-0.6,0.7-1.1,1.4-1.6,2.1
		c-0.5,0.7-0.9,1.4-1.2,1.9h0.5c2.2,0,3.8-0.4,4.9-1.2C32.6,74.9,33.2,73.7,33.3,72.2z"/>
	<path class="st0" d="M54.2,85.4c0,0.1-0.2,0.2-0.5,0.3c-0.3,0.1-0.7,0.2-1.1,0.3c-0.4,0.1-0.8,0.2-1.2,0.3
		c-0.4,0.1-0.6,0.1-0.8,0.2c-0.7,0.2-1.2,0.4-1.5,0.5s-0.5,0.1-0.7,0.1s-0.3-0.1-0.4-0.3c-0.1-0.2-0.1-0.4-0.2-0.7
		c0-0.3,0-0.5,0-0.8c0-0.3,0-0.5,0-0.7c0-0.7,0.1-1.4,0.3-2.3s0.4-1.7,0.6-2.5c0.2-0.8,0.4-1.5,0.5-2.1c0.2-0.6,0.3-1,0.3-1.3
		c-0.3,0.4-0.7,0.9-1,1.4c-0.3,0.5-0.6,1.1-1,1.5c-0.5,0.7-1.1,1.5-1.8,2.4c-0.7,0.9-1.4,1.7-2.2,2.5c-0.8,0.8-1.5,1.4-2.3,1.9
		c-0.8,0.5-1.4,0.8-2,0.8c-0.4,0-0.7-0.1-0.9-0.4c-0.2-0.3-0.3-0.6-0.4-1C38,85.4,38,85,38,84.6c0-0.4,0-0.8,0.1-1
		c0.1-1.6,0.3-3.2,0.7-4.8c0.4-1.7,1-3.2,1.8-4.6c0.4-0.7,0.8-1.3,1.4-1.9c0.5-0.6,1.2-1.2,1.9-1.7s1.5-1,2.5-1.4
		c0.9-0.4,2-0.7,3.1-0.9c0.6-0.1,1-0.2,1.3-0.2s0.5,0,0.7,0c0.2,0,0.4,0,0.5,0s0.4,0,0.7-0.1c0.3-0.1,0.6-0.1,0.8-0.2
		s0.4-0.1,0.5-0.1c0.2,0.1,0.3,0.2,0.3,0.3c0,0.1,0,0.2-0.1,0.3c-0.1,0.1-0.2,0.1-0.2,0.2c-0.3,0.8-0.6,1.7-0.9,2.8
		s-0.6,2.3-0.8,3.5c-0.3,1.3-0.5,2.5-0.7,3.8c-0.2,1.3-0.3,2.5-0.4,3.5c0,0.3,0,0.6,0,0.9c0,0.4,0.1,0.7,0.2,1
		c0.1,0.3,0.2,0.6,0.4,0.8c0.2,0.2,0.5,0.3,0.8,0.3c0.3,0,0.6,0,0.9-0.1c0.3-0.1,0.5-0.1,0.6,0C54.2,85,54.2,85.1,54.2,85.4z
		 M50.9,70.6c-0.1-0.1-0.4-0.2-0.9-0.4C49.6,70,48.8,70,47.8,70c-0.8,0-1.5,0.2-2.1,0.5c-0.6,0.3-1.1,0.7-1.6,1.2
		c-0.4,0.5-0.8,1.1-1.1,1.7c-0.3,0.7-0.6,1.3-0.8,2c-0.2,0.7-0.3,1.5-0.5,2.5c-0.2,1-0.3,1.9-0.4,2.8c-0.1,0.9-0.1,1.7,0,2.4
		c0.1,0.7,0.3,1,0.7,1c0.1,0,0.3,0,0.5-0.1c0.2-0.1,0.4-0.2,0.6-0.4c0.2-0.2,0.3-0.3,0.5-0.5c0.1-0.2,0.3-0.3,0.3-0.4
		c1-1.2,2-2.5,2.9-3.9c0.9-1.4,1.8-2.9,2.6-4.5c0.2-0.3,0.3-0.7,0.5-1.1c0.2-0.4,0.3-0.7,0.4-1.1s0.2-0.6,0.3-0.9
		C50.8,70.9,50.9,70.7,50.9,70.6z"/>
	<path class="st0" d="M71.2,85.5c0,0.1-0.1,0.1-0.1,0.2c0,0.1-0.1,0.1-0.2,0.1c-0.1,0-0.3,0-0.5,0.1c-0.2,0-0.4,0.1-0.6,0.1
		c-0.2,0.1-0.4,0.1-0.6,0.2c-0.2,0.1-0.4,0.1-0.5,0.1c-0.1,0-0.4,0.1-0.7,0.2c-0.3,0.1-0.7,0.2-1,0.3c-0.3,0.1-0.7,0.2-1,0.2
		c-0.3,0.1-0.5,0.1-0.6,0.1c-0.1,0-0.2,0-0.2-0.1c0-0.1,0-0.2,0-0.3c0.1-0.6,0.2-1.2,0.4-1.9c0.2-0.6,0.3-1.3,0.5-1.9
		c0.4-1.7,0.9-3.4,1.3-5.1c0.4-1.7,0.8-3.4,1-5.1c0-0.2,0.1-0.4,0.1-0.6s0-0.5,0-0.7s-0.1-0.4-0.2-0.6c-0.1-0.2-0.3-0.3-0.5-0.3
		c-0.3,0-0.6,0.2-1,0.5c-0.4,0.3-0.8,0.7-1.2,1.2c-0.4,0.4-0.8,0.9-1.2,1.3c-0.4,0.5-0.6,0.8-0.8,1c-0.3,0.4-0.6,0.8-0.9,1.3
		c-0.3,0.5-0.6,1-0.9,1.5s-0.6,1-0.8,1.6c-0.2,0.5-0.4,1-0.6,1.4c-0.3,1-0.6,2.1-0.8,3.1c-0.2,1.1-0.4,2.1-0.6,3.2l-2.9,0.1
		c0.6-2.1,1.2-4.1,1.7-6.2c0.5-2,0.9-4.1,1.3-6.2c0.1-0.6,0.2-1.1,0.2-1.7c0.1-0.6,0.1-1.1,0.1-1.7c0-0.3,0-0.7,0-1.1
		c0-0.4-0.2-0.6-0.6-0.6c-0.2,0-0.4,0-0.6,0.1c-0.2,0-0.4,0.1-0.6,0.1c-0.2,0-0.3-0.1-0.3-0.2s0-0.3,0-0.4c0.1-0.2,0.1-0.3,0.2-0.3
		c0.1,0,0.2-0.1,0.4-0.1c0.5,0,1-0.1,1.7-0.2c0.2,0,0.5-0.1,0.8-0.2s0.7-0.2,1-0.3c0.3-0.1,0.7-0.2,1-0.2c0.3-0.1,0.6-0.1,0.7-0.1
		c0.1,0,0.1,0.1,0.1,0.3c0,0.2,0,0.3,0,0.3c-0.1,0.5-0.1,1-0.3,1.4c-0.1,0.5-0.2,0.9-0.3,1.4C62.3,72,62,73,61.8,74
		s-0.5,2.1-0.7,3.1c0.4-0.7,0.8-1.3,1.3-1.9c0.5-0.6,0.9-1.2,1.4-1.8c0.3-0.4,0.8-1,1.3-1.6c0.5-0.7,1.1-1.3,1.8-1.9
		c0.6-0.6,1.3-1.2,1.9-1.6c0.7-0.5,1.3-0.7,1.8-0.7c0.3,0,0.5,0.1,0.7,0.3c0.1,0.2,0.2,0.5,0.3,0.8s0,0.6,0,1c0,0.3-0.1,0.6-0.1,0.8
		c-0.1,0.3-0.1,0.7-0.2,1c-0.1,0.3-0.1,0.7-0.2,1c-0.3,1.1-0.5,2.2-0.8,3.2c-0.3,1.1-0.5,2.1-0.8,3.2c-0.1,0.7-0.3,1.3-0.4,2
		s-0.3,1.3-0.4,2c0,0.2-0.1,0.4-0.1,0.7s0,0.6,0,0.8c0,0.3,0.1,0.5,0.3,0.7c0.1,0.2,0.3,0.3,0.6,0.3s0.5,0,0.8-0.1S70.8,85,71,85
		c0.1,0,0.1,0.1,0.2,0.2C71.2,85.3,71.2,85.4,71.2,85.5z"/>
	<path class="st0" d="M89.4,85.4c0,0.1-0.2,0.2-0.5,0.3s-0.7,0.2-1.1,0.3c-0.4,0.1-0.8,0.2-1.2,0.3c-0.4,0.1-0.6,0.1-0.8,0.2
		c-0.7,0.2-1.2,0.4-1.5,0.5c-0.3,0.1-0.5,0.1-0.7,0.1c-0.2,0-0.3-0.1-0.4-0.3c-0.1-0.2-0.1-0.4-0.2-0.7c0-0.3,0-0.5,0-0.8
		c0-0.3,0-0.5,0-0.7c0-0.7,0.1-1.4,0.3-2.3s0.4-1.7,0.6-2.5c0.2-0.8,0.4-1.5,0.5-2.1c0.2-0.6,0.3-1,0.3-1.3c-0.3,0.4-0.7,0.9-1,1.4
		c-0.3,0.5-0.6,1.1-1,1.5c-0.5,0.7-1.1,1.5-1.8,2.4c-0.7,0.9-1.4,1.7-2.2,2.5c-0.8,0.8-1.5,1.4-2.3,1.9c-0.8,0.5-1.4,0.8-2,0.8
		c-0.4,0-0.7-0.1-0.9-0.4c-0.2-0.3-0.3-0.6-0.4-1c-0.1-0.4-0.1-0.8-0.1-1.2c0-0.4,0-0.8,0.1-1c0.1-1.6,0.3-3.2,0.7-4.8
		c0.4-1.7,1-3.2,1.8-4.6c0.4-0.7,0.8-1.3,1.4-1.9c0.5-0.6,1.2-1.2,1.9-1.7s1.5-1,2.5-1.4c0.9-0.4,2-0.7,3.1-0.9
		c0.6-0.1,1-0.2,1.3-0.2s0.5,0,0.7,0s0.4,0,0.5,0s0.4,0,0.7-0.1c0.3-0.1,0.6-0.1,0.8-0.2c0.2-0.1,0.4-0.1,0.5-0.1
		c0.2,0.1,0.3,0.2,0.3,0.3c0,0.1,0,0.2-0.1,0.3s-0.2,0.1-0.2,0.2c-0.3,0.8-0.6,1.7-0.9,2.8c-0.3,1.1-0.6,2.3-0.8,3.5
		c-0.3,1.3-0.5,2.5-0.7,3.8c-0.2,1.3-0.3,2.5-0.4,3.5c0,0.3,0,0.6,0,0.9s0.1,0.7,0.2,1c0.1,0.3,0.2,0.6,0.4,0.8
		c0.2,0.2,0.5,0.3,0.8,0.3c0.3,0,0.6,0,0.9-0.1c0.3-0.1,0.5-0.1,0.6,0C89.5,85,89.5,85.1,89.4,85.4z M86.2,70.6
		c-0.1-0.1-0.4-0.2-0.9-0.4C84.8,70,84.1,70,83.1,70c-0.8,0-1.5,0.2-2.1,0.5c-0.6,0.3-1.1,0.7-1.6,1.2c-0.4,0.5-0.8,1.1-1.1,1.7
		c-0.3,0.7-0.6,1.3-0.8,2c-0.2,0.7-0.3,1.5-0.5,2.5c-0.2,1-0.3,1.9-0.4,2.8c-0.1,0.9-0.1,1.7,0,2.4c0.1,0.7,0.3,1,0.7,1
		c0.1,0,0.3,0,0.5-0.1c0.2-0.1,0.4-0.2,0.6-0.4c0.2-0.2,0.3-0.3,0.5-0.5c0.1-0.2,0.3-0.3,0.3-0.4c1-1.2,2-2.5,2.9-3.9
		c0.9-1.4,1.8-2.9,2.6-4.5c0.2-0.3,0.3-0.7,0.5-1.1c0.2-0.4,0.3-0.7,0.4-1.1c0.1-0.3,0.2-0.6,0.3-0.9C86.1,70.9,86.2,70.7,86.2,70.6
		z"/>
	<path class="st0" d="M106.5,68.2c0,0.1-0.1,0.2-0.2,0.4c-0.2,0.2-0.2,0.4-0.3,0.4c-0.6,0.9-1,1.8-1.3,2.7c0,0.1-0.1,0.2-0.1,0.3
		c0,0.1-0.1,0.3-0.1,0.4c0,0.2-0.1,0.3-0.1,0.4c-0.1,0.1-0.1,0.2-0.2,0.2c-0.1,0-0.2,0-0.4-0.1c-0.2-0.1-0.3-0.1-0.3-0.3
		c0.1-0.3,0.2-0.6,0.3-0.9c0.2-0.4,0.3-0.7,0.4-1c-0.5-0.4-1-0.7-1.6-0.8s-1.2-0.2-1.8-0.2c-1.1,0-2,0.2-2.8,0.5
		c-0.8,0.4-1.5,0.8-2,1.5c-0.6,0.6-1,1.4-1.3,2.2c-0.3,0.8-0.6,1.7-0.8,2.7c-0.1,1-0.2,2-0.1,2.9c0,0.9,0.2,1.8,0.6,2.5
		c0.3,0.7,0.9,1.3,1.6,1.8c0.7,0.5,1.6,0.7,2.8,0.7c1.1,0,1.8-0.3,2.3-0.9c0.5-0.6,0.8-1.3,0.9-2.3c0-0.2,0.1-0.4,0.1-0.6
		c0-0.2,0-0.4,0-0.6c0-0.1,0-0.3,0-0.6c0-0.3,0-0.4-0.1-0.5c0,0-0.1,0-0.3,0s-0.4,0-0.7,0s-0.5,0-0.7,0s-0.4,0-0.4,0
		c-0.3,0-0.5,0-0.6-0.1c-0.1-0.1-0.1-0.2-0.1-0.6c0-0.1,0.1-0.2,0.2-0.3c0.1,0,0.2-0.1,0.4-0.1c0.4,0,0.7,0,1,0.1
		c0.3,0,0.7,0.1,1,0.1c1.2,0,2.5,0,3.8-0.1c-0.4,1.3-0.8,2.6-1.2,3.9c-0.4,1.3-0.9,2.7-1.5,4c-0.6,1.3-1.2,2.6-1.9,3.8
		s-1.6,2.4-2.5,3.4c-0.5,0.5-1,0.9-1.7,1.3c-0.7,0.4-1.4,0.6-2,0.6c-0.3,0-0.6-0.1-0.8-0.2c-0.2-0.1-0.3-0.4-0.3-0.8
		c0.1-0.2,0.1-0.3,0.3-0.4c0.1-0.1,0.3-0.2,0.5-0.2c0.2,0,0.4,0,0.5,0.1c0.1,0,0.3,0.1,0.5,0.1c0.5,0,1.1-0.1,1.6-0.4
		c0.5-0.2,1-0.6,1.4-1c0.3-0.4,0.7-1,1-1.6s0.6-1.3,0.9-2c0.3-0.7,0.5-1.4,0.7-2c0.2-0.7,0.3-1.3,0.4-1.8v-0.3
		c-0.8,0.8-1.7,1.4-2.8,1.9s-2.1,0.7-3.1,0.7s-1.9-0.2-2.6-0.7c-0.7-0.4-1.1-1-1.5-1.7c-0.3-0.7-0.5-1.5-0.5-2.5
		c0-0.9,0-1.8,0.2-2.7c0.3-1.8,0.8-3.4,1.7-4.9c0.8-1.5,1.9-2.7,3.2-3.8c1.3-1.1,2.7-1.9,4.3-2.5c1.6-0.6,3.3-0.9,5-0.9
		c0.1,0,0.3,0,0.5,0c0.2,0,0.4,0,0.6,0.1c0.2,0,0.4,0.1,0.5,0.2C106.5,67.9,106.6,68,106.5,68.2z"/>
	<path class="st0" d="M123.1,85.4c0,0.1-0.2,0.2-0.5,0.3s-0.7,0.2-1.1,0.3c-0.4,0.1-0.8,0.2-1.2,0.3s-0.6,0.1-0.8,0.2
		c-0.7,0.2-1.2,0.4-1.5,0.5c-0.3,0.1-0.5,0.1-0.7,0.1c-0.2,0-0.3-0.1-0.4-0.3c-0.1-0.2-0.1-0.4-0.2-0.7s0-0.5,0-0.8s0-0.5,0-0.7
		c0-0.7,0.1-1.4,0.3-2.3c0.2-0.9,0.4-1.7,0.6-2.5c0.2-0.8,0.4-1.5,0.5-2.1c0.2-0.6,0.3-1,0.3-1.3c-0.3,0.4-0.7,0.9-1,1.4
		c-0.3,0.5-0.6,1.1-1,1.5c-0.5,0.7-1.1,1.5-1.8,2.4s-1.4,1.7-2.2,2.5c-0.8,0.8-1.5,1.4-2.3,1.9c-0.8,0.5-1.4,0.8-2,0.8
		c-0.4,0-0.7-0.1-0.9-0.4c-0.2-0.3-0.3-0.6-0.4-1c-0.1-0.4-0.1-0.8-0.1-1.2c0-0.4,0-0.8,0.1-1c0.1-1.6,0.3-3.2,0.7-4.8
		c0.4-1.7,1-3.2,1.8-4.6c0.4-0.7,0.8-1.3,1.4-1.9c0.5-0.6,1.2-1.2,1.9-1.7c0.7-0.5,1.5-1,2.5-1.4c0.9-0.4,2-0.7,3.1-0.9
		c0.6-0.1,1-0.2,1.3-0.2c0.3,0,0.5,0,0.7,0c0.2,0,0.4,0,0.5,0s0.4,0,0.7-0.1c0.3-0.1,0.6-0.1,0.8-0.2c0.2-0.1,0.4-0.1,0.5-0.1
		c0.2,0.1,0.3,0.2,0.3,0.3c0,0.1,0,0.2-0.1,0.3c-0.1,0.1-0.2,0.1-0.2,0.2c-0.3,0.8-0.6,1.7-0.9,2.8c-0.3,1.1-0.6,2.3-0.8,3.5
		c-0.3,1.3-0.5,2.5-0.7,3.8c-0.2,1.3-0.3,2.5-0.4,3.5c0,0.3,0,0.6,0,0.9c0,0.4,0.1,0.7,0.2,1c0.1,0.3,0.2,0.6,0.4,0.8
		c0.2,0.2,0.5,0.3,0.8,0.3c0.3,0,0.6,0,0.9-0.1s0.5-0.1,0.6,0C123.1,85,123.1,85.1,123.1,85.4z M119.8,70.6
		c-0.1-0.1-0.4-0.2-0.9-0.4c-0.4-0.2-1.2-0.3-2.2-0.3c-0.8,0-1.5,0.2-2.1,0.5s-1.1,0.7-1.6,1.2s-0.8,1.1-1.1,1.7
		c-0.3,0.7-0.6,1.3-0.8,2c-0.2,0.7-0.3,1.5-0.5,2.5s-0.3,1.9-0.4,2.8c-0.1,0.9-0.1,1.7,0,2.4c0.1,0.7,0.3,1,0.7,1
		c0.1,0,0.3,0,0.5-0.1c0.2-0.1,0.4-0.2,0.6-0.4c0.2-0.2,0.3-0.3,0.5-0.5c0.1-0.2,0.3-0.3,0.3-0.4c1-1.2,2-2.5,2.9-3.9
		c0.9-1.4,1.8-2.9,2.6-4.5c0.2-0.3,0.3-0.7,0.5-1.1c0.2-0.4,0.3-0.7,0.4-1.1s0.2-0.6,0.3-0.9C119.8,70.9,119.8,70.7,119.8,70.6z"/>
	<path class="st0" d="M140.2,85.5c0,0.1-0.1,0.1-0.1,0.2c0,0.1-0.1,0.1-0.2,0.1c-0.1,0-0.3,0-0.5,0.1c-0.2,0-0.4,0.1-0.6,0.1
		c-0.2,0.1-0.4,0.1-0.6,0.2s-0.4,0.1-0.5,0.1c-0.1,0-0.4,0.1-0.7,0.2c-0.3,0.1-0.7,0.2-1,0.3s-0.7,0.2-1,0.2
		c-0.3,0.1-0.5,0.1-0.6,0.1s-0.2,0-0.2-0.1c0-0.1,0-0.2,0-0.3c0.1-0.6,0.2-1.2,0.4-1.9c0.2-0.6,0.3-1.3,0.5-1.9
		c0.4-1.7,0.9-3.4,1.3-5.1c0.4-1.7,0.8-3.4,1-5.1c0-0.2,0.1-0.4,0.1-0.6c0-0.3,0-0.5,0-0.7s-0.1-0.4-0.2-0.6
		c-0.1-0.2-0.3-0.3-0.5-0.3c-0.3,0-0.6,0.2-1,0.5c-0.4,0.3-0.8,0.7-1.2,1.2c-0.4,0.4-0.8,0.9-1.2,1.3c-0.4,0.5-0.6,0.8-0.8,1
		c-0.3,0.4-0.6,0.8-0.9,1.3c-0.3,0.5-0.6,1-0.9,1.5c-0.3,0.5-0.6,1-0.8,1.6c-0.2,0.5-0.4,1-0.6,1.4c-0.3,1-0.6,2.1-0.8,3.1
		c-0.2,1.1-0.4,2.1-0.6,3.2l-2.9,0.1c0.6-2.1,1.2-4.1,1.7-6.2c0.5-2,0.9-4.1,1.3-6.2c0.1-0.6,0.2-1.1,0.2-1.7
		c0.1-0.6,0.1-1.1,0.1-1.7c0-0.3,0-0.7,0-1.1c0-0.4-0.2-0.6-0.6-0.6c-0.2,0-0.4,0-0.6,0.1c-0.2,0-0.4,0.1-0.6,0.1
		c-0.2,0-0.3-0.1-0.3-0.2c0-0.1,0-0.3,0-0.4c0.1-0.2,0.1-0.3,0.2-0.3c0.1,0,0.2-0.1,0.4-0.1c0.5,0,1-0.1,1.7-0.2
		c0.2,0,0.5-0.1,0.8-0.2c0.3-0.1,0.7-0.2,1-0.3s0.7-0.2,1-0.2c0.3-0.1,0.6-0.1,0.7-0.1c0.1,0,0.1,0.1,0.1,0.3c0,0.2,0,0.3,0,0.3
		c-0.1,0.5-0.1,1-0.3,1.4c-0.1,0.5-0.2,0.9-0.3,1.4c-0.3,1.1-0.5,2.1-0.8,3.1c-0.3,1-0.5,2.1-0.7,3.1c0.4-0.7,0.8-1.3,1.3-1.9
		s0.9-1.2,1.4-1.8c0.3-0.4,0.8-1,1.3-1.6c0.5-0.7,1.1-1.3,1.8-1.9c0.6-0.6,1.3-1.2,1.9-1.6c0.7-0.5,1.3-0.7,1.8-0.7
		c0.3,0,0.5,0.1,0.7,0.3c0.1,0.2,0.2,0.5,0.3,0.8c0,0.3,0,0.6,0,1c0,0.3-0.1,0.6-0.1,0.8c-0.1,0.3-0.1,0.7-0.2,1
		c-0.1,0.3-0.1,0.7-0.2,1c-0.3,1.1-0.5,2.2-0.8,3.2s-0.5,2.1-0.8,3.2c-0.1,0.7-0.3,1.3-0.4,2s-0.3,1.3-0.4,2c0,0.2-0.1,0.4-0.1,0.7
		s0,0.6,0,0.8c0,0.3,0.1,0.5,0.3,0.7c0.1,0.2,0.3,0.3,0.6,0.3s0.5,0,0.8-0.1c0.3-0.1,0.5-0.1,0.8-0.1c0.1,0,0.1,0.1,0.2,0.2
		C140.2,85.3,140.2,85.4,140.2,85.5z"/>
</g>
<g>
	<path class="st1" d="M25.4,96.1c0,0.1-0.1,0.2-0.1,0.3s-0.1,0.1-0.2,0.1c-0.1,0-0.2,0-0.3,0s-0.2,0-0.2,0c-0.3,0-0.5,0.1-0.5,0.3
		c-0.1,0.2-0.1,0.4-0.2,0.6c-0.2,0.7-0.4,1.3-0.5,2s-0.3,1.3-0.4,2c-0.2,0.9-0.4,1.8-0.5,2.8s-0.3,1.8-0.5,2.8
		c-0.1,0.5-0.2,1.1-0.3,1.7c-0.1,0.6-0.2,1.1-0.2,1.7c0,0.2,0,0.5,0,0.7c0.1,0.2,0.2,0.3,0.5,0.3c0.1,0,0.1,0,0.2,0
		c0.1,0,0.1,0,0.2,0c0.2,0,0.3,0.1,0.2,0.3c0,0.2-0.1,0.3-0.3,0.3c-0.4,0-0.8,0-1.1,0c-0.4,0-0.8,0-1.1,0c-0.4,0-0.7,0-1,0
		s-0.7,0-1,0c-0.2,0-0.2-0.1-0.2-0.3c0-0.3,0.1-0.4,0.3-0.4s0.4,0,0.6,0c0.2,0,0.4-0.1,0.5-0.3s0.1-0.4,0.2-0.6
		c0.2-0.5,0.3-1.1,0.5-1.6c0.1-0.6,0.2-1.1,0.3-1.6c0.2-0.9,0.4-1.8,0.5-2.6c0.2-0.9,0.3-1.8,0.5-2.6l0-0.2c0.1-0.5,0.2-1,0.2-1.5
		c0.1-0.5,0.1-1,0.2-1.5c0-0.2,0.1-0.4,0.1-0.6s0-0.4,0.1-0.6c0-0.2,0-0.3-0.1-0.5c-0.1-0.2-0.2-0.3-0.4-0.3c-0.1,0-0.2,0-0.3,0
		c-0.1,0-0.2,0-0.3,0c-0.1,0-0.2,0-0.2-0.1c0,0,0-0.1,0-0.3c0.1-0.2,0.2-0.3,0.4-0.3c0.4,0,0.7,0,1.1,0s0.7,0,1.1,0c0.4,0,0.7,0,1,0
		s0.7,0,1,0C25.4,95.8,25.5,95.9,25.4,96.1z"/>
	<path class="st1" d="M34.6,110.9c0,0,0,0.1-0.1,0.1c0,0.1-0.1,0.1-0.1,0.1c-0.1,0-0.2,0-0.3,0c-0.1,0-0.3,0.1-0.4,0.1
		c-0.1,0-0.3,0.1-0.4,0.1s-0.2,0.1-0.3,0.1c-0.1,0-0.2,0.1-0.4,0.1c-0.2,0.1-0.4,0.1-0.6,0.2s-0.4,0.1-0.6,0.1
		c-0.2,0-0.3,0.1-0.4,0.1c-0.1,0-0.1,0-0.1-0.1c0-0.1,0-0.1,0-0.2c0.1-0.4,0.1-0.8,0.3-1.2c0.1-0.4,0.2-0.8,0.3-1.2
		c0.3-1.1,0.5-2.1,0.8-3.2c0.3-1,0.5-2.1,0.6-3.2c0-0.1,0-0.2,0.1-0.4c0-0.2,0-0.3,0-0.5c0-0.1-0.1-0.3-0.1-0.4
		c-0.1-0.1-0.2-0.2-0.3-0.2c-0.2,0-0.4,0.1-0.6,0.3s-0.5,0.4-0.8,0.7c-0.3,0.3-0.5,0.6-0.7,0.8c-0.2,0.3-0.4,0.5-0.5,0.6
		c-0.2,0.2-0.4,0.5-0.6,0.8c-0.2,0.3-0.4,0.6-0.6,0.9c-0.2,0.3-0.4,0.6-0.5,1c-0.1,0.3-0.3,0.6-0.4,0.9c-0.2,0.6-0.4,1.3-0.5,1.9
		s-0.2,1.3-0.3,2l-1.8,0.1c0.4-1.3,0.7-2.6,1-3.8c0.3-1.3,0.6-2.6,0.8-3.9c0.1-0.4,0.1-0.7,0.1-1c0-0.3,0.1-0.7,0.1-1
		c0-0.2,0-0.4,0-0.7s-0.1-0.4-0.4-0.4c-0.1,0-0.3,0-0.4,0c-0.1,0-0.3,0-0.4,0c-0.1,0-0.2,0-0.2-0.1c0-0.1,0-0.2,0-0.3
		c0-0.1,0.1-0.2,0.1-0.2c0.1,0,0.1,0,0.2,0c0.3,0,0.6,0,1-0.1c0.1,0,0.3-0.1,0.5-0.1c0.2-0.1,0.4-0.1,0.6-0.2s0.4-0.1,0.6-0.1
		s0.3-0.1,0.5-0.1c0.1,0,0.1,0.1,0.1,0.2c0,0.1,0,0.2,0,0.2c0,0.3-0.1,0.6-0.2,0.9c-0.1,0.3-0.1,0.6-0.2,0.9
		c-0.2,0.7-0.3,1.3-0.5,1.9c-0.2,0.6-0.3,1.3-0.5,1.9c0.2-0.4,0.5-0.8,0.8-1.2c0.3-0.4,0.6-0.8,0.9-1.1c0.2-0.3,0.5-0.6,0.8-1
		c0.3-0.4,0.7-0.8,1.1-1.2c0.4-0.4,0.8-0.7,1.2-1c0.4-0.3,0.8-0.4,1.1-0.4c0.2,0,0.3,0.1,0.4,0.2s0.1,0.3,0.2,0.5c0,0.2,0,0.4,0,0.6
		c0,0.2,0,0.4-0.1,0.5c0,0.2-0.1,0.4-0.1,0.6c0,0.2-0.1,0.4-0.1,0.6c-0.2,0.7-0.3,1.3-0.5,2c-0.2,0.7-0.3,1.3-0.5,2
		c-0.1,0.4-0.2,0.8-0.3,1.2c-0.1,0.4-0.2,0.8-0.3,1.2c0,0.1,0,0.2-0.1,0.4c0,0.2,0,0.3,0,0.5s0.1,0.3,0.2,0.4
		c0.1,0.1,0.2,0.2,0.4,0.2c0.2,0,0.3,0,0.5-0.1c0.2-0.1,0.3-0.1,0.5-0.1c0.1,0,0.1,0,0.1,0.1S34.6,110.9,34.6,110.9z"/>
	<path class="st1" d="M45,104.1c-0.1,0.8-0.4,1.6-0.7,2.5c-0.3,0.9-0.8,1.8-1.3,2.5c-0.5,0.8-1.2,1.4-1.9,2s-1.6,0.8-2.6,0.8
		c-0.6,0-1-0.1-1.4-0.4c-0.3-0.3-0.6-0.6-0.7-1.1c-0.1-0.4-0.2-0.9-0.2-1.4s0-1,0.1-1.5c0.1-1,0.4-1.9,0.9-2.8
		c0.4-0.9,1-1.8,1.7-2.6c0.2-0.3,0.6-0.6,0.9-0.8c0.4-0.3,0.8-0.5,1.2-0.7s0.8-0.4,1.2-0.5c0.4-0.2,0.8-0.3,1.2-0.3
		c-0.4-1.2-0.7-2.3-1.2-3.2c-0.4-1-1-1.9-1.7-2.9c0.4-0.1,0.8-0.2,1.2-0.3c0.4-0.1,0.8-0.1,1.2-0.2c0.4,0.8,0.8,1.7,1.1,2.6
		c0.3,0.9,0.6,1.7,0.8,2.6s0.3,1.8,0.4,2.8C45.2,102.1,45.1,103.1,45,104.1z M43.3,101.2c-0.3-0.1-0.7-0.2-1.1-0.2
		c-0.6,0-1.2,0.2-1.6,0.5c-0.5,0.3-0.8,0.7-1.1,1.2c-0.3,0.5-0.5,1-0.7,1.6c-0.2,0.6-0.3,1.1-0.4,1.6c-0.1,0.4-0.1,0.9-0.1,1.4
		s0,1,0.1,1.5s0.3,0.8,0.6,1.1c0.3,0.3,0.7,0.5,1.3,0.5c0.5,0,0.9-0.2,1.3-0.5c0.3-0.3,0.6-0.7,0.8-1.2c0.2-0.5,0.4-0.9,0.5-1.4
		c0.1-0.5,0.2-0.9,0.3-1.3c0.1-0.8,0.2-1.6,0.2-2.4C43.4,102.8,43.3,102,43.3,101.2z"/>
	<path class="st1" d="M50.2,111.1c0,0.1-0.1,0.2-0.2,0.2c-0.2,0-0.4,0.1-0.6,0.1c-0.2,0-0.4,0.1-0.6,0.1c-0.3,0.1-0.6,0.1-1,0.3
		s-0.7,0.2-1,0.2c-0.1,0-0.3,0-0.3-0.1c-0.1,0-0.1-0.1-0.1-0.3c0.1-0.4,0.2-0.9,0.3-1.3s0.2-0.9,0.3-1.3c0.2-1,0.5-2,0.7-3
		c0.2-1,0.4-2,0.6-3l0.1-0.6c0-0.1,0-0.2,0.1-0.4c0-0.2,0-0.4,0.1-0.6c0-0.2,0-0.4,0-0.5c0-0.2-0.1-0.3-0.2-0.3c-0.1,0-0.2,0-0.3,0
		c-0.1,0-0.3,0-0.4,0c-0.1,0-0.2,0-0.3-0.1c-0.1-0.1-0.1-0.1-0.1-0.2c0-0.2,0.1-0.3,0.2-0.3c0.1,0,0.3,0,0.4,0c0.1,0,0.3,0,0.4,0
		c0.2,0,0.5,0,0.8,0c0.3,0,0.5,0,0.8-0.1c0.1,0,0.2,0,0.4,0c0.1,0,0.2,0,0.4,0c0,0,0.1,0,0.1,0.1c0.1,0,0.1,0.1,0.1,0.1
		c0,0.1-0.1,0.3-0.1,0.5c-0.1,0.2-0.1,0.3-0.2,0.5c-0.1,0.4-0.2,0.7-0.3,1c-0.1,0.3-0.2,0.7-0.3,1c-0.2,0.8-0.4,1.6-0.5,2.4
		c-0.2,0.8-0.3,1.6-0.4,2.4c-0.1,0.4-0.1,0.7-0.2,1c-0.1,0.3-0.1,0.7-0.1,1c0,0.3,0,0.6,0.1,0.8c0.1,0.2,0.3,0.3,0.6,0.3
		c0.1,0,0.2,0,0.4,0c0.1,0,0.2,0,0.4,0C50.1,110.7,50.2,110.9,50.2,111.1z"/>
	<path class="st1" d="M61.6,110.8c0,0.1-0.1,0.1-0.3,0.2c-0.2,0.1-0.4,0.1-0.7,0.2c-0.2,0.1-0.5,0.1-0.7,0.2s-0.4,0.1-0.5,0.1
		c-0.4,0.1-0.8,0.2-0.9,0.3c-0.2,0.1-0.3,0.1-0.4,0.1s-0.2-0.1-0.2-0.2c-0.1-0.1-0.1-0.3-0.1-0.4c0-0.2,0-0.3,0-0.5
		c0-0.2,0-0.3,0-0.4c0-0.4,0.1-0.9,0.2-1.4c0.1-0.5,0.2-1,0.3-1.5s0.2-0.9,0.3-1.3s0.2-0.6,0.2-0.8c-0.2,0.3-0.4,0.6-0.6,0.9
		c-0.2,0.3-0.4,0.7-0.6,1c-0.3,0.5-0.7,1-1.1,1.5c-0.4,0.5-0.9,1.1-1.4,1.5s-0.9,0.9-1.4,1.2c-0.5,0.3-0.9,0.5-1.3,0.5
		c-0.2,0-0.4-0.1-0.6-0.3c-0.1-0.2-0.2-0.4-0.3-0.6c0-0.2-0.1-0.5-0.1-0.7s0-0.5,0-0.6c0.1-1,0.2-2,0.4-3c0.2-1,0.6-2,1.1-2.8
		c0.2-0.4,0.5-0.8,0.8-1.2c0.3-0.4,0.7-0.8,1.2-1.1c0.4-0.3,0.9-0.6,1.5-0.9c0.6-0.2,1.2-0.4,1.9-0.6c0.4-0.1,0.6-0.1,0.8-0.1
		s0.3,0,0.5,0c0.1,0,0.2,0,0.3,0c0.1,0,0.2,0,0.4,0s0.4-0.1,0.5-0.1c0.1-0.1,0.2-0.1,0.3-0.1c0.1,0,0.2,0.1,0.2,0.2
		c0,0.1,0,0.1-0.1,0.2c-0.1,0-0.1,0.1-0.1,0.1c-0.2,0.5-0.4,1.1-0.5,1.7c-0.2,0.7-0.4,1.4-0.5,2.2c-0.2,0.8-0.3,1.6-0.4,2.4
		c-0.1,0.8-0.2,1.5-0.2,2.2c0,0.2,0,0.3,0,0.6c0,0.2,0,0.4,0.1,0.6c0.1,0.2,0.2,0.4,0.3,0.5c0.1,0.1,0.3,0.2,0.5,0.2
		c0.2,0,0.4,0,0.5-0.1c0.2-0.1,0.3-0.1,0.4,0C61.6,110.6,61.6,110.7,61.6,110.8z M59.5,101.6c-0.1,0-0.3-0.1-0.5-0.2
		c-0.3-0.1-0.7-0.2-1.3-0.2c-0.5,0-0.9,0.1-1.3,0.3c-0.4,0.2-0.7,0.4-1,0.8c-0.3,0.3-0.5,0.7-0.7,1.1s-0.4,0.8-0.5,1.2
		c-0.1,0.4-0.2,0.9-0.3,1.5c-0.1,0.6-0.2,1.2-0.2,1.8c0,0.6,0,1.1,0,1.5c0.1,0.4,0.2,0.6,0.5,0.6c0.1,0,0.2,0,0.3-0.1
		c0.1-0.1,0.2-0.1,0.3-0.2c0.1-0.1,0.2-0.2,0.3-0.3c0.1-0.1,0.2-0.2,0.2-0.2c0.6-0.7,1.2-1.5,1.8-2.4c0.6-0.9,1.1-1.8,1.6-2.8
		c0.1-0.2,0.2-0.4,0.3-0.7s0.2-0.5,0.3-0.7c0.1-0.2,0.1-0.4,0.2-0.6C59.5,101.9,59.5,101.7,59.5,101.6z"/>
	<path class="st1" d="M72.2,110.9c0,0,0,0.1-0.1,0.1c0,0.1-0.1,0.1-0.1,0.1c-0.1,0-0.2,0-0.3,0c-0.1,0-0.3,0.1-0.4,0.1
		c-0.1,0-0.3,0.1-0.4,0.1s-0.2,0.1-0.3,0.1c-0.1,0-0.2,0.1-0.4,0.1c-0.2,0.1-0.4,0.1-0.6,0.2s-0.4,0.1-0.6,0.1
		c-0.2,0-0.3,0.1-0.4,0.1c-0.1,0-0.1,0-0.1-0.1c0-0.1,0-0.1,0-0.2c0.1-0.4,0.1-0.8,0.3-1.2c0.1-0.4,0.2-0.8,0.3-1.2
		c0.3-1.1,0.5-2.1,0.8-3.2c0.3-1,0.5-2.1,0.6-3.2c0-0.1,0-0.2,0.1-0.4c0-0.2,0-0.3,0-0.5c0-0.1-0.1-0.3-0.1-0.4
		c-0.1-0.1-0.2-0.2-0.3-0.2c-0.2,0-0.4,0.1-0.6,0.3s-0.5,0.4-0.8,0.7c-0.3,0.3-0.5,0.6-0.7,0.8c-0.2,0.3-0.4,0.5-0.5,0.6
		c-0.2,0.2-0.4,0.5-0.6,0.8c-0.2,0.3-0.4,0.6-0.6,0.9c-0.2,0.3-0.4,0.6-0.5,1c-0.1,0.3-0.3,0.6-0.4,0.9c-0.2,0.6-0.4,1.3-0.5,1.9
		s-0.2,1.3-0.3,2l-1.8,0.1c0.4-1.3,0.7-2.6,1-3.8c0.3-1.3,0.6-2.6,0.8-3.9c0.1-0.4,0.1-0.7,0.1-1c0-0.3,0.1-0.7,0.1-1
		c0-0.2,0-0.4,0-0.7s-0.1-0.4-0.4-0.4c-0.1,0-0.3,0-0.4,0c-0.1,0-0.3,0-0.4,0c-0.1,0-0.2,0-0.2-0.1c0-0.1,0-0.2,0-0.3
		c0-0.1,0.1-0.2,0.1-0.2c0.1,0,0.1,0,0.2,0c0.3,0,0.6,0,1-0.1c0.1,0,0.3-0.1,0.5-0.1c0.2-0.1,0.4-0.1,0.6-0.2s0.4-0.1,0.6-0.1
		s0.3-0.1,0.5-0.1c0.1,0,0.1,0.1,0.1,0.2c0,0.1,0,0.2,0,0.2c0,0.3-0.1,0.6-0.2,0.9c-0.1,0.3-0.1,0.6-0.2,0.9
		c-0.2,0.7-0.3,1.3-0.5,1.9c-0.2,0.6-0.3,1.3-0.5,1.9c0.2-0.4,0.5-0.8,0.8-1.2c0.3-0.4,0.6-0.8,0.9-1.1c0.2-0.3,0.5-0.6,0.8-1
		c0.3-0.4,0.7-0.8,1.1-1.2c0.4-0.4,0.8-0.7,1.2-1c0.4-0.3,0.8-0.4,1.1-0.4c0.2,0,0.3,0.1,0.4,0.2s0.1,0.3,0.2,0.5c0,0.2,0,0.4,0,0.6
		c0,0.2,0,0.4-0.1,0.5c0,0.2-0.1,0.4-0.1,0.6c0,0.2-0.1,0.4-0.1,0.6c-0.2,0.7-0.3,1.3-0.5,2c-0.2,0.7-0.3,1.3-0.5,2
		c-0.1,0.4-0.2,0.8-0.3,1.2c-0.1,0.4-0.2,0.8-0.3,1.2c0,0.1,0,0.2-0.1,0.4c0,0.2,0,0.3,0,0.5s0.1,0.3,0.2,0.4
		c0.1,0.1,0.2,0.2,0.4,0.2c0.2,0,0.3,0,0.5-0.1c0.2-0.1,0.3-0.1,0.5-0.1c0.1,0,0.1,0,0.1,0.1S72.2,110.9,72.2,110.9z"/>
	<path class="st1" d="M90.2,106.3c-0.1,1-0.5,1.8-1.1,2.5c-0.6,0.7-1.3,1.3-2.2,1.8c-0.5,0.3-0.9,0.5-1.3,0.6
		c-0.4,0.1-0.9,0.3-1.3,0.3c-0.4,0.1-0.9,0.1-1.3,0.1c-0.4,0-0.9,0-1.4,0c-0.4,0-0.8,0-1.2,0c-0.4,0-0.8,0-1.2,0
		c-0.1,0-0.2,0-0.2-0.1c0-0.1,0-0.2,0-0.3c0-0.2,0.1-0.3,0.3-0.3c0.1,0,0.2,0,0.2,0s0.1,0,0.2,0c0.2,0,0.4,0,0.5-0.1
		c0.1-0.1,0.2-0.2,0.2-0.4c0.1-0.4,0.3-0.8,0.3-1.2c0.1-0.4,0.2-0.8,0.3-1.2c0.2-0.8,0.3-1.5,0.5-2.3c0.1-0.8,0.3-1.5,0.4-2.3
		c0-0.1,0-0.2,0-0.2c0-0.1,0-0.1,0-0.2c0.1-0.8,0.2-1.6,0.3-2.4c0.1-0.8,0.2-1.6,0.3-2.4c0-0.1,0-0.2,0-0.4s0-0.4,0.1-0.6
		c0-0.2,0-0.4,0-0.5c0-0.1-0.1-0.2-0.2-0.2c-0.2,0-0.4,0-0.6,0.1c-0.2,0.1-0.4,0.2-0.6,0.2c-0.2,0.1-0.4,0.2-0.5,0.2
		c-0.2,0.1-0.3,0.1-0.4,0.1c-0.1,0-0.2-0.1-0.2-0.2c-0.1-0.1-0.1-0.2-0.1-0.3c0-0.1,0.1-0.1,0.3-0.2c0.2-0.1,0.3-0.1,0.3-0.1
		c0.4-0.2,0.9-0.3,1.4-0.4c0.5-0.1,1-0.2,1.5-0.3c0.5-0.1,1-0.1,1.5-0.2c0.5,0,1-0.1,1.4-0.1c0.5,0,1,0,1.5,0.1
		c0.5,0,0.9,0.2,1.3,0.3c0.4,0.2,0.7,0.5,0.9,0.8c0.2,0.4,0.2,0.9,0.1,1.5c-0.1,0.5-0.3,1-0.5,1.4c-0.2,0.4-0.6,0.7-0.9,1.1
		c-0.4,0.3-0.8,0.6-1.2,0.9c-0.4,0.3-0.8,0.6-1.2,0.8c0.6,0.1,1.1,0.2,1.6,0.3c0.5,0.1,0.9,0.4,1.3,0.6c0.4,0.3,0.6,0.6,0.8,1.1
		C90.3,105.1,90.3,105.6,90.2,106.3z M83.4,103.2c-0.3,1.5-0.6,3-0.8,4.5c-0.1,0.4-0.1,0.8-0.2,1.2c-0.1,0.3-0.1,0.6,0,0.9
		c0.1,0.2,0.2,0.4,0.4,0.6c0.2,0.1,0.6,0.2,1.2,0.2c0.5,0,0.9-0.1,1.3-0.2c0.4-0.1,0.8-0.3,1.1-0.5c0.3-0.2,0.6-0.5,0.8-0.9
		c0.2-0.4,0.4-0.8,0.4-1.3c0.1-0.8,0.1-1.5,0-2c-0.1-0.6-0.4-1-0.8-1.4c-0.4-0.3-0.8-0.6-1.4-0.8c-0.6-0.2-1.2-0.2-2-0.2H83.4z
		 M84.7,96.5l-1.2,6.1c0.3,0,0.7,0,1,0c0.3,0,0.7,0,1,0c0.1,0,0.1,0,0.3-0.1c0.1-0.1,0.2-0.1,0.3-0.2c0.5-0.4,0.9-0.8,1.3-1.3
		c0.4-0.5,0.6-1,0.7-1.6c0.1-0.5,0.1-1-0.1-1.3c-0.1-0.4-0.3-0.6-0.6-0.9c-0.3-0.2-0.6-0.4-1-0.5c-0.4-0.1-0.8-0.1-1.3-0.1H84.7z"/>
	<path class="st1" d="M101.5,110.8c0,0.1-0.1,0.1-0.3,0.2c-0.2,0.1-0.4,0.1-0.7,0.2s-0.5,0.1-0.7,0.2s-0.4,0.1-0.5,0.1
		c-0.4,0.1-0.8,0.2-0.9,0.3s-0.3,0.1-0.4,0.1c-0.1,0-0.2-0.1-0.2-0.2s-0.1-0.3-0.1-0.4c0-0.2,0-0.3,0-0.5c0-0.2,0-0.3,0-0.4
		c0-0.4,0.1-0.9,0.2-1.4c0.1-0.5,0.2-1,0.3-1.5c0.1-0.5,0.2-0.9,0.3-1.3c0.1-0.4,0.2-0.6,0.2-0.8c-0.2,0.3-0.4,0.6-0.6,0.9
		c-0.2,0.3-0.4,0.7-0.6,1c-0.3,0.5-0.7,1-1.1,1.5c-0.4,0.5-0.9,1.1-1.3,1.5c-0.5,0.5-0.9,0.9-1.4,1.2c-0.5,0.3-0.9,0.5-1.3,0.5
		c-0.2,0-0.4-0.1-0.6-0.3c-0.1-0.2-0.2-0.4-0.3-0.6c0-0.2-0.1-0.5-0.1-0.7c0-0.3,0-0.5,0-0.6c0.1-1,0.2-2,0.4-3c0.2-1,0.6-2,1.1-2.8
		c0.2-0.4,0.5-0.8,0.8-1.2c0.3-0.4,0.7-0.8,1.2-1.1c0.4-0.3,0.9-0.6,1.5-0.9c0.6-0.2,1.2-0.4,1.9-0.6c0.4-0.1,0.6-0.1,0.8-0.1
		c0.2,0,0.3,0,0.5,0c0.1,0,0.2,0,0.3,0c0.1,0,0.2,0,0.4,0s0.4-0.1,0.5-0.1c0.1-0.1,0.2-0.1,0.3-0.1c0.1,0,0.2,0.1,0.2,0.2
		c0,0.1,0,0.1-0.1,0.2s-0.1,0.1-0.1,0.1c-0.2,0.5-0.4,1.1-0.5,1.7s-0.4,1.4-0.5,2.2c-0.2,0.8-0.3,1.6-0.4,2.4
		c-0.1,0.8-0.2,1.5-0.2,2.2c0,0.2,0,0.3,0,0.6c0,0.2,0,0.4,0.1,0.6c0.1,0.2,0.2,0.4,0.3,0.5c0.1,0.1,0.3,0.2,0.5,0.2
		c0.2,0,0.4,0,0.5-0.1c0.2-0.1,0.3-0.1,0.4,0C101.5,110.6,101.5,110.7,101.5,110.8z M99.5,101.6c-0.1,0-0.3-0.1-0.5-0.2
		c-0.3-0.1-0.7-0.2-1.3-0.2c-0.5,0-0.9,0.1-1.3,0.3s-0.7,0.4-1,0.8c-0.3,0.3-0.5,0.7-0.7,1.1c-0.2,0.4-0.4,0.8-0.5,1.2
		c-0.1,0.4-0.2,0.9-0.3,1.5c-0.1,0.6-0.2,1.2-0.2,1.8c0,0.6,0,1.1,0,1.5c0.1,0.4,0.2,0.6,0.5,0.6c0.1,0,0.2,0,0.3-0.1
		c0.1-0.1,0.2-0.1,0.3-0.2c0.1-0.1,0.2-0.2,0.3-0.3c0.1-0.1,0.2-0.2,0.2-0.2c0.6-0.7,1.2-1.5,1.8-2.4c0.6-0.9,1.1-1.8,1.6-2.8
		c0.1-0.2,0.2-0.4,0.3-0.7c0.1-0.2,0.2-0.5,0.3-0.7c0.1-0.2,0.1-0.4,0.2-0.6C99.4,101.9,99.5,101.7,99.5,101.6z"/>
	<path class="st1" d="M112.1,110.9c0,0,0,0.1-0.1,0.1c0,0.1-0.1,0.1-0.1,0.1c-0.1,0-0.2,0-0.3,0c-0.1,0-0.3,0.1-0.4,0.1
		c-0.1,0-0.3,0.1-0.4,0.1s-0.2,0.1-0.3,0.1c-0.1,0-0.2,0.1-0.4,0.1c-0.2,0.1-0.4,0.1-0.6,0.2s-0.4,0.1-0.6,0.1
		c-0.2,0-0.3,0.1-0.4,0.1s-0.1,0-0.1-0.1s0-0.1,0-0.2c0.1-0.4,0.1-0.8,0.3-1.2c0.1-0.4,0.2-0.8,0.3-1.2c0.3-1.1,0.5-2.1,0.8-3.2
		c0.3-1,0.5-2.1,0.6-3.2c0-0.1,0-0.2,0.1-0.4c0-0.2,0-0.3,0-0.5c0-0.1-0.1-0.3-0.1-0.4c-0.1-0.1-0.2-0.2-0.3-0.2
		c-0.2,0-0.4,0.1-0.6,0.3c-0.3,0.2-0.5,0.4-0.8,0.7c-0.3,0.3-0.5,0.6-0.7,0.8c-0.2,0.3-0.4,0.5-0.5,0.6c-0.2,0.2-0.4,0.5-0.6,0.8
		c-0.2,0.3-0.4,0.6-0.6,0.9c-0.2,0.3-0.4,0.6-0.5,1c-0.2,0.3-0.3,0.6-0.4,0.9c-0.2,0.6-0.4,1.3-0.5,1.9s-0.2,1.3-0.3,2l-1.8,0.1
		c0.4-1.3,0.7-2.6,1-3.8c0.3-1.3,0.6-2.6,0.8-3.9c0.1-0.4,0.1-0.7,0.1-1c0-0.3,0.1-0.7,0.1-1c0-0.2,0-0.4,0-0.7
		c0-0.2-0.2-0.4-0.4-0.4c-0.1,0-0.3,0-0.4,0c-0.1,0-0.3,0-0.4,0c-0.1,0-0.2,0-0.2-0.1c0-0.1,0-0.2,0-0.3c0-0.1,0.1-0.2,0.1-0.2
		c0.1,0,0.1,0,0.2,0c0.3,0,0.6,0,1-0.1c0.1,0,0.3-0.1,0.5-0.1c0.2-0.1,0.4-0.1,0.6-0.2c0.2-0.1,0.4-0.1,0.6-0.1s0.3-0.1,0.5-0.1
		c0.1,0,0.1,0.1,0.1,0.2c0,0.1,0,0.2,0,0.2c0,0.3-0.1,0.6-0.2,0.9c-0.1,0.3-0.1,0.6-0.2,0.9c-0.2,0.7-0.3,1.3-0.5,1.9
		c-0.2,0.6-0.3,1.3-0.5,1.9c0.2-0.4,0.5-0.8,0.8-1.2c0.3-0.4,0.6-0.8,0.9-1.1c0.2-0.3,0.5-0.6,0.8-1c0.3-0.4,0.7-0.8,1.1-1.2
		c0.4-0.4,0.8-0.7,1.2-1s0.8-0.4,1.1-0.4c0.2,0,0.3,0.1,0.4,0.2c0.1,0.1,0.1,0.3,0.2,0.5s0,0.4,0,0.6c0,0.2,0,0.4-0.1,0.5
		c0,0.2-0.1,0.4-0.1,0.6c0,0.2-0.1,0.4-0.1,0.6c-0.2,0.7-0.3,1.3-0.5,2c-0.2,0.7-0.3,1.3-0.5,2c-0.1,0.4-0.2,0.8-0.3,1.2
		c-0.1,0.4-0.2,0.8-0.3,1.2c0,0.1,0,0.2-0.1,0.4s0,0.3,0,0.5s0.1,0.3,0.2,0.4c0.1,0.1,0.2,0.2,0.4,0.2c0.2,0,0.3,0,0.5-0.1
		c0.2-0.1,0.3-0.1,0.5-0.1c0.1,0,0.1,0,0.1,0.1S112.1,110.9,112.1,110.9z"/>
	<path class="st1" d="M122.5,104.1c-0.1,0.8-0.4,1.6-0.7,2.5c-0.3,0.9-0.8,1.8-1.3,2.5c-0.5,0.8-1.2,1.4-1.9,2
		c-0.8,0.5-1.6,0.8-2.6,0.8c-0.6,0-1-0.1-1.4-0.4c-0.3-0.3-0.6-0.6-0.7-1.1c-0.1-0.4-0.2-0.9-0.2-1.4s0-1,0.1-1.5
		c0.1-1,0.4-1.9,0.9-2.8c0.4-0.9,1-1.8,1.7-2.6c0.2-0.3,0.6-0.6,0.9-0.8c0.4-0.3,0.8-0.5,1.2-0.7c0.4-0.2,0.8-0.4,1.2-0.5
		c0.4-0.2,0.8-0.3,1.2-0.3c-0.4-1.2-0.7-2.3-1.2-3.2s-1-1.9-1.7-2.9c0.4-0.1,0.8-0.2,1.2-0.3s0.8-0.1,1.2-0.2
		c0.4,0.8,0.8,1.7,1.1,2.6c0.3,0.9,0.6,1.7,0.8,2.6s0.3,1.8,0.4,2.8C122.7,102.1,122.6,103.1,122.5,104.1z M120.8,101.2
		c-0.3-0.1-0.7-0.2-1.1-0.2c-0.6,0-1.2,0.2-1.6,0.5c-0.5,0.3-0.8,0.7-1.1,1.2c-0.3,0.5-0.5,1-0.7,1.6c-0.2,0.6-0.3,1.1-0.4,1.6
		c-0.1,0.4-0.1,0.9-0.1,1.4s0,1,0.1,1.5s0.3,0.8,0.6,1.1c0.3,0.3,0.7,0.5,1.3,0.5c0.5,0,0.9-0.2,1.3-0.5c0.3-0.3,0.6-0.7,0.8-1.2
		c0.2-0.5,0.4-0.9,0.5-1.4c0.1-0.5,0.2-0.9,0.3-1.3c0.1-0.8,0.2-1.6,0.2-2.4C120.9,102.8,120.8,102,120.8,101.2z"/>
</g>
</svg>
