<?xml version="1.0" encoding="utf-8"?>
<!-- Generator: Adobe Illustrator 19.2.1, SVG Export Plug-In . SVG Version: 6.00 Build 0)  -->
<svg version="1.1" id="Layer_1" xmlns="http://www.w3.org/2000/svg" xmlns:xlink="http://www.w3.org/1999/xlink" x="0px" y="0px"
	 width="43.2px" height="22.4px" viewBox="0 0 43.2 22.4" style="enable-background:new 0 0 43.2 22.4;" xml:space="preserve">
<style type="text/css">
	.st0{fill:#FFFFFF;}
</style>
<g id="owe76p.tif">
	<g>
		<g>
			<path class="st0" d="M25.8,0c1,0.4,1.4,1.8,2.4,2.3c0.5,0.3,1.1,0.3,1-0.3c0-0.6-1.3-1.3-1.2-1.8c0.1-0.4,1.9,1.9,2.2,2.1
				c0.5,0.4,1.2,0.4,0.8-0.4c-0.1-0.2-1.3-1.3-1.1-1.6c0.1-0.2,2.2,2.3,2.5,2.5c0.6,0.5,1.2,0.3,0.9-0.5c-0.1-0.2-0.9-1.6-0.7-1.6
				c0.8,0.1,1.5,2.2,2,2.7c0.6,0.5,0.8,0.1,0.7-0.5c-0.1-0.2-0.8-1.6-0.6-1.6c0.5-0.2,1.4,2.5,1.7,2.8c0.6,0.8,1,0.4,0.8-0.5
				c0-0.3-0.6-1.4-0.5-1.6c0.2-0.3,0.8,1,0.9,1.2C37.6,3.8,37.6,4.5,38,5c0.5,0.7,1,0.3,1-0.4c0-0.3-0.7-1.7-0.5-1.8
				c0.3-0.3,0.8,1.4,0.9,1.5c0.1,0.5,0.2,1.1,0.3,1.6c0.1,0.3,0.3,1.3,0.8,1.1c0.4-0.2,0.3-1.5,0.4-1.8c0.2-0.9,0.4,0.1,0.4,0.6
				c0,0.7-0.1,1.4-0.2,2c-0.1,0.9,0.4,0.5,0.6,0c0-0.1,0.3-1.4,0.5-1.4c0.5,0.1-0.5,2.6-0.5,2.9c-0.1,1.4,1.1-0.8,1.3-0.8
				c0.3,0-1.1,2.1-1.1,2.2c-0.1,0.9,0.7-0.1,1-0.3c0.8-0.5-0.1,0.7-0.3,0.9c-0.3,0.3-0.6,0.5-0.2,0.7c0.2,0.1,0.9-0.2,1,0
				c0.1,0.3-1.1,0.5-1.2,0.8c-0.1,0.4,1,0.4,0.9,0.7c0,0.1-1.1-0.1-1.4,0.3c-0.2,0.3-0.2,0.9-0.2,1.2c-0.1,0.9,0.1,3.1-1.3,2.8
				c-1.1-0.2-1.4-1.1-2.1-1.8c-0.2-0.2-0.3-0.4-0.6-0.3c-0.3,0.1-0.1,0.3-0.3,0.5c-0.1,0.2,0.1,0.2-0.1,0.3c-0.1,0-0.3-0.4-0.4-0.4
				c-0.4,0.2,0.1,1.3-0.7,0.3c-0.4,0.3,0.3,1.2-0.6,0.5c-0.4,0.3,0.4,1.4,0.6,1.5c0.4,0.4,0.8,0.7,1.3,0.8c0.9,0.3,2.1,0.2,2.8,1
				c0.2,0.3,0.6,1.3,0.1,1.5c-0.3,0.2-0.2-0.1-0.4-0.2c-0.4-0.1,0-0.3-0.3,0c-0.1,0.1-0.1,0.5-0.4,0.5c-0.3,0,0-0.2-0.2-0.4
				c-0.7-0.6-0.1,0.4-0.7,0.4c-0.4,0-0.2-0.3-0.4-0.4c-0.2-0.2-0.4-0.2-0.7-0.3c-0.6-0.2-1.1-0.2-1.7-0.4c-1.2-0.4-2.1-1-3.1-1.7
				c-0.1-0.1-0.5-0.5-0.7-0.4c-0.2,0.1,0.1,0.7,0.2,0.8c0.3,0.3,0.8,0.3,1.2,0.4c0.5,0.2,0.9,0.7,0.8,1.4c0,0.2-0.3,0.7-0.5,0.7
				c-0.4,0-0.2-0.2-0.4-0.4c-0.2,0.2-0.3,0.5-0.6,0.5c-0.2-0.1-0.1-0.3-0.3-0.4c-0.1,0.1-0.2,0.4-0.3,0.5c-0.4,0.2-0.2,0.1-0.4-0.1
				c-0.1-0.1-0.1-0.3-0.3-0.4c-0.2-0.2-0.6-0.2-0.9-0.2c-1-0.2-1.9-0.6-2.5-1.5c-0.1-0.2-0.4-1.1-0.6-1.2c-0.4-0.2-0.6,0.4-1,0.1
				c-0.1-0.1,0.2-0.2-0.2-0.3c-0.2,0-0.4,0.2-0.5,0.3c-0.9,0.3,0-0.5-0.6-0.5c-0.4,0,0.3,1.1,0.4,1.3c0.3,0.5,0.7,0.7,1.3,0.9
				c0.4,0.2,0.8,0.4,1,0.8c0.2,0.3,0.5,1.4-0.1,1.4c-0.4,0-0.3-0.8-0.7-0.4c-0.1,0.1,0,0.4-0.2,0.5C26,22.5,26,22,25.7,21.9
				c-0.5-0.1-0.3,0.5-0.6,0.5c-0.2,0-0.3-0.5-0.6-0.7c-0.8-0.5-2-0.4-2.9-0.8c-1-0.5-1.6-1.4-2.2-2.2c-0.3-0.5-0.6-0.5-0.5,0.1
				c0,0.7,0.4,1,1,1.3c0.4,0.3,0.9,0.5,1,1c0.1,0.2,0.1,1.1-0.4,1c-0.1,0-0.1-0.5-0.3-0.6c-0.3-0.1-0.2,0.2-0.4,0.3
				c-0.7,0.6-0.4-0.5-0.9-0.4c-0.3,0.1-0.2,0.9-0.7,0.5c-0.2-0.2-0.1-0.4-0.3-0.6c-0.2-0.2-0.6-0.2-0.8-0.3c-1.1-0.4-2-0.9-2.4-2.1
				c-0.2-0.5-0.2-1-0.1-1.5c0.1-0.8-0.1-0.7-0.7-0.2c-0.1,0.1-0.4,0.5-0.6,0.5c-0.3,0-0.2-0.3-0.3-0.3c-0.5-0.1-0.8,0.7-1.1,0.9
				c-0.1,0.1-0.4,0.3-0.6,0.2c-0.2-0.2,0.2-0.4,0.2-0.6c-0.1-0.5-0.8,0.3-1,0.5c-0.2,0.2-0.9,1-1.1,0.6c-0.1-0.2,0.4-0.4,0-0.6
				c-0.1,0-0.4,0.1-0.5,0.2c-0.4,0.3-0.7,1-1.2,1.2c-0.6,0.3-0.3-0.2-0.1-0.6c-0.5,0-0.8,0.9-1.3,1c-0.8,0.1,0.3-0.6,0-1
				c-0.2,0.2-1.2,1-1.4,0.9c-0.4-0.2,0.9-1.2-0.1-0.9c-0.5,0.1-0.9,0.6-1.3,0.8c-1.3,0.6,0.1-0.6,0.1-0.9c-0.5,0-0.9,0.3-1.3,0.5
				c-0.4,0.1-1.2,0.4-0.7-0.1c0.3-0.4,1.2-0.5,1.5-1C2.5,18.1-0.1,19,0,18.3c0-0.2,2.3-0.6,2.6-0.8c0.1-0.3-2.2-0.3-1.4-0.7
				c0.4-0.2,2.5,0.4,2.4-0.3c0-0.4-1.4-0.4-0.6-0.8c0.4-0.2,1.1,0.1,1.6,0c1.7-0.4-1.9-0.7-0.3-1c0.6-0.1,1.4,0.2,1.9-0.2
				c0.9-0.7-0.8-0.6-1-0.8c-0.3-0.4,0.8-0.3,1.1-0.3c0.4,0,1.1,0.1,1.4-0.2c0.4-0.5-0.6-0.4-0.9-0.5c-1-0.3,0.1-0.4,0.5-0.4
				c0.6,0,1.2,0.1,1.7-0.2c0.5-0.4,0.4-0.6-0.2-0.8c-0.3-0.1-1.5,0.1-1-0.3c0.4-0.3,1.4-0.1,1.9-0.2c0.3,0,1.2-0.2,1.2-0.7
				C10.8,9.4,9,10.1,9,9.7c-0.1-0.7,3.3,0.1,3.2-1c0-0.5-1.2-0.3-1.5-0.4c-0.9-0.1,0-0.4,0.5-0.4c0.3,0,3.5-0.2,2.2-1.1
				c-0.4-0.3-1.1-0.2-1.6-0.3c-0.9-0.3-0.2-0.3,0.4-0.4c0.7,0,2.8,0.4,3.1-0.4c0.2-0.6-0.6-0.8-1-0.9c-0.2-0.1-1.7-0.1-1-0.5
				c1-0.5,2.6,1,3.5,0.2c1.3-1-2.1-1.6-1.9-1.9c0.1-0.3,1.1,0.1,1.3,0.2c0.8,0.3,1.4,0.7,2.2,0.7C19,3.4,19,3,18.4,2.4
				c-0.3-0.3-1.5-0.7-1.6-1.1c0.5-0.7,3.1,1.9,4,1.6c1.2-0.4-2-2-2-2.4c0.5-0.5,2.9,1.7,3.4,1.9c1.9,0.6-1-2.3-0.9-2.3
				c0.2-0.3,2.4,1.9,2.7,2.1c1.8,0.9-0.7-1.9-0.7-2c0.2-0.3,2.4,2,2.9,2c0.8,0.1,0.7-0.5,0.4-1C26.5,1.2,25.4,0,25.8,0
				C25.9,0.1,25.7,0,25.8,0z M40.4,11c0.5-0.2-0.2-1.6-0.4-1.9c-0.3-0.6-0.8-1.1-1.3-1.6c-1.1-0.9-2.5-1.6-3.8-2
				c-2.8-1-5.8-1.5-8.8-1.4c-2.7,0.1-5.4,0.2-7.9,1.4c-2.4,1.2-4.2,3.5-6,5.4c-1.7,1.7-3.5,3.2-5.4,4.7c-0.4,0.3-2.3,1.4-2.2,2.1
				c0.3,1.2,3.2,0.2,3.8,0c1.3-0.4,2.4-1.1,3.7-1.5c1.3-0.5,2.6-1.1,4-1.1c2.9,0,3.4,3.6,5.5,5c0.9,0.6,2.4,1.1,3.5,0.9
				c1.1-0.2,0.3-0.5-0.2-1c-0.4-0.4-0.7-0.8-1-1.3c-0.6-1.1-0.5-2.5-0.3-3.7c0.2-1,0.8-3.2,2-3.5c0.1,0.2-0.6,1.2-0.7,1.4
				c-0.2,0.6-0.4,1.3-0.5,1.9c-0.1,0.5-0.1,1-0.2,1.5c0,0.9,0.3,0.9,1.1,1c0.6,0.1,1.1,0.1,1.7,0.1c0.6,0,0.8-0.2,0.9,0.5
				c0.1,1.3,0.7,2,2,2.4c0.3,0.1,1.7,0.5,2,0.2c0.2-0.2-0.9-0.9-1-1.1c-0.4-0.5-0.4-0.8-0.3-1.3c0.1-0.5,0-0.8-0.5-1.1
				c-0.6-0.4-1.4-0.3-2.1-0.4c-0.5-0.1-0.9-0.3-0.2-0.4c0.3-0.1,2.1,0.1,1.5-0.6c-0.2-0.2-1.8,0-1.7-0.3c0,0,2.7-0.7,0.9-0.9
				c-0.2,0-1,0.1-1-0.1c0-0.3,1.1-0.2,1.2-0.5c0.2-0.6-1-0.3-1.1-0.6c-0.2-0.5,1.1-0.2,1.4-0.5c0.3-0.5-0.6-0.6-0.4-0.8
				c0-0.1,1.1,0,1.2,0.1c0.1,0.1-0.1,0.3-0.1,0.5c-0.1,0.3-0.1,0.7-0.1,1c0,0.6,0.3,1.2,0.5,1.7c0.5,1.1,1.3,2.1,2.2,2.9
				c0.8,0.8,1.8,1.4,2.8,1.8c0.7,0.2,1.9,0.6,2.5,0.3c0.5-0.2,0.3-0.4-0.1-0.5c-0.7-0.3-1.3-0.5-2-1c-0.8-0.6-1.6-1.8-0.9-2.7
				c0.5-0.6,1.3-0.9,2-1.1c1.6-0.5,1.4,1.3,2.6,1.9c1.5,0.8,1.4-1.3,1.4-2.3c0.1-1.1,0.2-2.6-1.2-2.9c-0.8-0.2-2.2,0.1-2.5,1
				C37,12.7,37.3,13,37,13.1c-0.2,0.1-0.5-0.2-0.7-0.2c-0.5-0.1-1.1-0.4-0.2-0.5c0.7-0.1,1.1-0.4,0.3-1c-0.7-0.5-0.4-0.5,0.3-0.3
				c0.5,0.2,1.4,0.2,0.8-0.6c-0.2-0.2-1.2-0.8-0.6-0.8c0.6,0,1.1,0.9,1.7,1.1c0.8,0.2,0.5-0.6,0.3-1.1c-0.2-0.3-0.8-1.3,0-0.6
				C39.6,9.7,39.7,10.6,40.4,11C40.6,10.9,40.3,10.9,40.4,11z M16.1,16.3c-1.1,0-0.8,2.2-0.5,2.8c0.3,0.6,0.7,0.8,1.3,1.1
				c0.3,0.1,1.2,0.5,1.5,0.3c0.3-0.3-0.1-0.7-0.2-1c-0.2-0.7-0.2-1,0-1.6c0-0.3,0.1-0.2,0-0.5c0-0.1-0.5-0.4-0.6-0.5
				C17.2,16.6,16.6,16.3,16.1,16.3C16,16.3,16.3,16.3,16.1,16.3z"/>
		</g>
		<g>
			<path class="st0" d="M2.2,18.8C2.1,18.8,2.1,18.8,2.2,18.8C2.1,18.8,2.2,18.8,2.2,18.8z"/>
		</g>
		<g>
			<path class="st0" d="M40.5,13.8c0,0.4-1,0.8-1.3,0.8c-0.5,0-1.6-0.6-1.4-1.2c0.1-0.6,1.1-0.7,1.6-0.5
				C39.8,12.9,40.3,13.3,40.5,13.8C40.5,13.9,40.5,13.8,40.5,13.8z M39.4,13.3c0,0.1,0.2,0.3,0.2,0.4c0,0.3-0.4,0.5-0.7,0.3
				c-0.5-0.3,0-0.7,0.4-0.7c-0.8-0.5-1.4,0.4-0.4,0.8C39.6,14.4,40.3,13.7,39.4,13.3C39.4,13.3,39.5,13.3,39.4,13.3z"/>
		</g>
	</g>
</g>
</svg>
